AnekLatin-Medium.ufo
<glyph name="colon" format="2">
  <advance width="418"/>
  <unicode hex="003A"/>
  <outline>
    <contour>
      <point x="209" y="-21" type="curve" smooth="yes"/>
      <point x="288" y="-21"/>
      <point x="326" y="24"/>
      <point x="326" y="102" type="curve" smooth="yes"/>
      <point x="326" y="112" type="line" smooth="yes"/>
      <point x="326" y="189"/>
      <point x="288" y="234"/>
      <point x="209" y="234" type="curve" smooth="yes"/>
      <point x="129" y="234"/>
      <point x="92" y="189"/>
      <point x="92" y="112" type="curve" smooth="yes"/>
      <point x="92" y="102" type="line" smooth="yes"/>
      <point x="92" y="24"/>
      <point x="129" y="-21"/>
    </contour>
    <contour>
      <point x="209" y="670" type="curve" smooth="yes"/>
      <point x="288" y="670"/>
      <point x="326" y="715"/>
      <point x="326" y="793" type="curve" smooth="yes"/>
      <point x="326" y="803" type="line" smooth="yes"/>
      <point x="326" y="880"/>
      <point x="288" y="925"/>
      <point x="209" y="925" type="curve" smooth="yes"/>
      <point x="129" y="925"/>
      <point x="92" y="880"/>
      <point x="92" y="803" type="curve" smooth="yes"/>
      <point x="92" y="793" type="line" smooth="yes"/>
      <point x="92" y="715"/>
      <point x="129" y="670"/>
    </contour>
  </outline>
</glyph>
<glyph name="semicolon" format="2">
  <advance width="416"/>
  <unicode hex="003B"/>
  <outline>
    <contour>
      <point x="304" y="284" type="curve"/>
      <point x="116" y="284" type="line"/>
      <point x="121" y="242"/>
      <point x="123" y="204"/>
      <point x="123" y="160" type="curve" smooth="yes"/>
      <point x="123" y="10"/>
      <point x="91" y="-109"/>
      <point x="24" y="-219" type="curve"/>
      <point x="161" y="-259" type="line"/>
      <point x="271" y="-130"/>
      <point x="314" y="5"/>
      <point x="314" y="168" type="curve" smooth="yes"/>
      <point x="314" y="214"/>
      <point x="308" y="257"/>
    </contour>
    <contour>
      <point x="209" y="670" type="curve" smooth="yes"/>
      <point x="288" y="670"/>
      <point x="326" y="715"/>
      <point x="326" y="793" type="curve" smooth="yes"/>
      <point x="326" y="803" type="line" smooth="yes"/>
      <point x="326" y="880"/>
      <point x="288" y="925"/>
      <point x="209" y="925" type="curve" smooth="yes"/>
      <point x="129" y="925"/>
      <point x="92" y="880"/>
      <point x="92" y="803" type="curve" smooth="yes"/>
      <point x="92" y="793" type="line" smooth="yes"/>
      <point x="92" y="715"/>
      <point x="129" y="670"/>
    </contour>
  </outline>
</glyph>
<glyph name="yen" format="2">
  <advance width="1133"/>
  <unicode hex="00A5"/>
  <anchor x="565" y="0" name="bottom"/>
  <anchor x="565" y="1278" name="top"/>
  <anchor x="29" y="1278" name="topleft"/>
  <outline>
    <contour>
      <point x="646" y="536" type="line"/>
      <point x="1011" y="536" type="line"/>
      <point x="1025" y="682" type="line"/>
      <point x="681" y="682" type="line"/>
    </contour>
    <contour>
      <point x="125" y="385" type="line"/>
      <point x="111" y="240" type="line"/>
      <point x="1011" y="240" type="line"/>
      <point x="1025" y="385" type="line"/>
    </contour>
    <contour>
      <point x="448" y="682" type="line"/>
      <point x="125" y="682" type="line"/>
      <point x="111" y="536" type="line"/>
      <point x="484" y="536" type="line"/>
    </contour>
    <component base="Y" xOffset="9"/>
  </outline>
</glyph>
<glyph name="dcroat" format="2">
  <advance width="1104"/>
  <unicode hex="0111"/>
  <anchor x="535" y="0" name="bottom"/>
  <anchor x="535" y="490" name="center"/>
  <anchor x="535" y="1324" name="top"/>
  <anchor x="1103" y="1324" name="topright"/>
  <outline>
    <contour>
      <point x="455" y="1090" type="line"/>
      <point x="1101" y="1090" type="line"/>
      <point x="1101" y="1209" type="line"/>
      <point x="455" y="1209" type="line"/>
    </contour>
    <component base="d"/>
  </outline>
</glyph>
<glyph name="eogonek" format="2">
  <advance width="1010"/>
  <unicode hex="0119"/>
  <anchor x="520" y="0" name="bottom"/>
  <anchor x="837" y="8" name="ogonek"/>
  <anchor x="516" y="978" name="top"/>
  <outline>
    <contour>
      <point x="741" y="-363" type="curve" smooth="yes"/>
      <point x="793" y="-363"/>
      <point x="842" y="-354"/>
      <point x="880" y="-338" type="curve"/>
      <point x="899" y="-204" type="line"/>
      <point x="862" y="-217"/>
      <point x="828" y="-224"/>
      <point x="791" y="-224" type="curve" smooth="yes"/>
      <point x="720" y="-224"/>
      <point x="678" y="-198"/>
      <point x="678" y="-142" type="curve" smooth="yes"/>
      <point x="678" y="-141" type="line" smooth="yes"/>
      <point x="678" y="-74"/>
      <point x="719" y="-26"/>
      <point x="793" y="15" type="curve"/>
      <point x="793" y="30" type="line"/>
      <point x="661" y="-2" type="line"/>
      <point x="661" y="-22" type="line"/>
      <point x="577" y="-61"/>
      <point x="531" y="-119"/>
      <point x="531" y="-205" type="curve" smooth="yes"/>
      <point x="531" y="-206" type="line" smooth="yes"/>
      <point x="531" y="-310"/>
      <point x="613" y="-363"/>
    </contour>
    <component base="e"/>
  </outline>
</glyph>
<glyph name="Hbar" format="2">
  <advance width="1253"/>
  <unicode hex="0126"/>
  <anchor x="627" y="0" name="bottom"/>
  <anchor x="627" y="639" name="center"/>
  <anchor x="627" y="1278" name="top"/>
  <anchor x="20" y="1278" name="topleft"/>
  <outline>
    <contour>
      <point x="24" y="941" type="line"/>
      <point x="1230" y="941" type="line"/>
      <point x="1230" y="1079" type="line"/>
      <point x="24" y="1079" type="line"/>
    </contour>
    <component base="H"/>
  </outline>
</glyph>
<glyph name="hbar" format="2">
  <advance width="1081"/>
  <unicode hex="0127"/>
  <anchor x="542" y="0" name="bottom"/>
  <anchor x="542" y="657" name="center"/>
  <anchor x="223" y="1324" name="top"/>
  <outline>
    <contour>
      <point x="3" y="1090" type="line"/>
      <point x="649" y="1090" type="line"/>
      <point x="649" y="1209" type="line"/>
      <point x="3" y="1209" type="line"/>
    </contour>
    <component base="h" xOffset="1"/>
  </outline>
</glyph>
<glyph name="kgreenlandic" format="2">
  <advance width="1012"/>
  <unicode hex="0138"/>
  <anchor x="507" y="0" name="bottom"/>
  <anchor x="507" y="978" name="top"/>
  <outline>
    <contour>
      <point x="758" y="0" type="line"/>
      <point x="990" y="0" type="line"/>
      <point x="545" y="526" type="line"/>
      <point x="545" y="483" type="line"/>
      <point x="973" y="978" type="line"/>
      <point x="744" y="978" type="line"/>
      <point x="400" y="573" type="line"/>
      <point x="293" y="573" type="line"/>
      <point x="293" y="421" type="line"/>
      <point x="399" y="421" type="line"/>
    </contour>
    <contour>
      <point x="124" y="0" type="line"/>
      <point x="319" y="0" type="line"/>
      <point x="319" y="978" type="line"/>
      <point x="124" y="978" type="line"/>
    </contour>
  </outline>
</glyph>
<glyph name="Lslash" format="2">
  <advance width="995"/>
  <unicode hex="0141"/>
  <anchor x="542" y="0" name="bottom"/>
  <anchor x="479" y="646" name="center"/>
  <anchor x="259" y="1278" name="top"/>
  <anchor x="679" y="1278" name="topright"/>
  <outline>
    <contour>
      <point x="688" y="977" type="line"/>
      <point x="14" y="710" type="line"/>
      <point x="14" y="548" type="line"/>
      <point x="688" y="815" type="line"/>
    </contour>
    <component base="L" xOffset="16"/>
  </outline>
</glyph>
<glyph name="lslash" format="2">
  <advance width="532"/>
  <unicode hex="0142"/>
  <anchor x="269" y="0" name="bottom"/>
  <anchor x="269" y="657" name="center"/>
  <anchor x="269" y="1324" name="top"/>
  <anchor x="508" y="1324" name="topright"/>
  <outline>
    <contour>
      <point x="15" y="490" type="line"/>
      <point x="517" y="832" type="line"/>
      <point x="517" y="991" type="line"/>
      <point x="15" y="649" type="line"/>
    </contour>
    <component base="l" xOffset="42"/>
  </outline>
</glyph>
<glyph name="Eng" format="2">
  <advance width="1258"/>
  <unicode hex="014A"/>
  <outline>
    <contour>
      <point x="142" y="0" type="line"/>
      <point x="337" y="0" type="line"/>
      <point x="337" y="497" type="line"/>
      <point x="329" y="1073" type="line"/>
      <point x="341" y="1073" type="line"/>
      <point x="819" y="0" type="line"/>
      <point x="1018" y="0" type="line"/>
      <point x="1112" y="84" type="line"/>
      <point x="1112" y="1279" type="line"/>
      <point x="917" y="1279" type="line"/>
      <point x="917" y="770" type="line"/>
      <point x="925" y="218" type="line"/>
      <point x="913" y="218" type="line"/>
      <point x="442" y="1279" type="line"/>
      <point x="142" y="1279" type="line"/>
    </contour>
    <contour>
      <point x="806" y="-358" type="curve" smooth="yes"/>
      <point x="1031" y="-358"/>
      <point x="1112" y="-234"/>
      <point x="1112" y="-31" type="curve" smooth="yes"/>
      <point x="1112" y="161" type="line"/>
      <point x="917" y="161" type="line"/>
      <point x="917" y="-21" type="line" smooth="yes"/>
      <point x="917" y="-135"/>
      <point x="880" y="-198"/>
      <point x="757" y="-198" type="curve" smooth="yes"/>
      <point x="712" y="-198"/>
      <point x="671" y="-190"/>
      <point x="633" y="-175" type="curve"/>
      <point x="649" y="-334" type="line"/>
      <point x="687" y="-348"/>
      <point x="744" y="-358"/>
    </contour>
  </outline>
</glyph>
<glyph name="eng" format="2">
  <advance width="1080"/>
  <unicode hex="014B"/>
  <outline>
    <contour>
      <point x="772" y="200" type="line"/>
      <point x="968" y="200" type="line"/>
      <point x="968" y="626" type="line" smooth="yes"/>
      <point x="968" y="867"/>
      <point x="873" y="1000"/>
      <point x="644" y="1000" type="curve" smooth="yes"/>
      <point x="452" y="1000"/>
      <point x="357" y="900"/>
      <point x="323" y="777" type="curve"/>
      <point x="281" y="777" type="line"/>
      <point x="313" y="641" type="line"/>
      <point x="340" y="752"/>
      <point x="424" y="837"/>
      <point x="567" y="837" type="curve" smooth="yes"/>
      <point x="720" y="837"/>
      <point x="772" y="745"/>
      <point x="772" y="604" type="curve" smooth="yes"/>
    </contour>
    <contour>
      <point x="124" y="0" type="line"/>
      <point x="320" y="0" type="line"/>
      <point x="320" y="737" type="line"/>
      <point x="312" y="749" type="line"/>
      <point x="320" y="978" type="line"/>
      <point x="124" y="978" type="line"/>
    </contour>
    <component base="jbottom" xOffset="620"/>
  </outline>
</glyph>
<glyph name="tcaron" format="2">
  <advance width="791"/>
  <unicode hex="0165"/>
  <anchor x="450" y="0" name="bottom"/>
  <anchor x="400" y="490" name="center"/>
  <anchor x="267" y="1209" name="top"/>
  <anchor x="569" y="1418" name="topright"/>
  <outline>
    <contour>
      <point x="726" y="1418" type="curve"/>
      <point x="568" y="1418" type="line"/>
      <point x="572" y="1387"/>
      <point x="574" y="1361"/>
      <point x="574" y="1330" type="curve" smooth="yes"/>
      <point x="574" y="1228"/>
      <point x="554" y="1145"/>
      <point x="512" y="1070" type="curve"/>
      <point x="628" y="1041" type="line"/>
      <point x="703" y="1128"/>
      <point x="734" y="1223"/>
      <point x="734" y="1338" type="curve" smooth="yes"/>
      <point x="734" y="1371"/>
      <point x="729" y="1400"/>
    </contour>
    <component base="t"/>
  </outline>
</glyph>
<glyph name="Tbar" format="2">
  <advance width="1076"/>
  <unicode hex="0166"/>
  <anchor x="538" y="0" name="bottom"/>
  <anchor x="538" y="639" name="center"/>
  <anchor x="538" y="1278" name="top"/>
  <outline>
    <contour>
      <point x="153" y="526" type="line"/>
      <point x="920" y="526" type="line"/>
      <point x="920" y="678" type="line"/>
      <point x="153" y="678" type="line"/>
    </contour>
    <component base="T"/>
  </outline>
</glyph>
<glyph name="tbar" format="2">
  <advance width="799"/>
  <unicode hex="0167"/>
  <outline>
    <contour>
      <point x="488" y="-20" type="curve" smooth="yes"/>
      <point x="587" y="-20"/>
      <point x="674" y="-2"/>
      <point x="738" y="30" type="curve"/>
      <point x="755" y="198" type="line"/>
      <point x="696" y="168"/>
      <point x="624" y="150"/>
      <point x="550" y="150" type="curve" smooth="yes"/>
      <point x="410" y="150"/>
      <point x="359" y="204"/>
      <point x="359" y="326" type="curve" smooth="yes"/>
      <point x="359" y="899" type="line"/>
      <point x="165" y="899" type="line"/>
      <point x="165" y="301" type="line" smooth="yes"/>
      <point x="165" y="85"/>
      <point x="256" y="-20"/>
    </contour>
    <contour>
      <point x="26" y="447" type="line"/>
      <point x="707" y="447" type="line"/>
      <point x="707" y="586" type="line"/>
      <point x="26" y="586" type="line"/>
    </contour>
    <contour>
      <point x="12" y="810" type="line"/>
      <point x="729" y="810" type="line"/>
      <point x="746" y="966" type="line"/>
      <point x="12" y="966" type="line"/>
    </contour>
    <contour>
      <point x="167" y="949" type="line"/>
      <point x="354" y="949" type="line"/>
      <point x="362" y="1241" type="line"/>
      <point x="166" y="1218" type="line"/>
    </contour>
  </outline>
</glyph>
<glyph name="Uogonek" format="2">
  <advance width="1234"/>
  <unicode hex="0172"/>
  <anchor x="617" y="0" name="bottom"/>
  <anchor x="876" y="5" name="ogonek"/>
  <anchor x="617" y="1278" name="top"/>
  <anchor x="1213" y="1278" name="topright"/>
  <outline>
    <contour>
      <point x="765" y="-363" type="curve" smooth="yes"/>
      <point x="816" y="-363"/>
      <point x="866" y="-355"/>
      <point x="903" y="-339" type="curve"/>
      <point x="922" y="-205" type="line"/>
      <point x="887" y="-218"/>
      <point x="852" y="-224"/>
      <point x="816" y="-224" type="curve" smooth="yes"/>
      <point x="746" y="-224"/>
      <point x="706" y="-199"/>
      <point x="706" y="-146" type="curve" smooth="yes"/>
      <point x="706" y="-145" type="line" smooth="yes"/>
      <point x="706" y="-83"/>
      <point x="750" y="-36"/>
      <point x="829" y="7" type="curve"/>
      <point x="829" y="90" type="line"/>
      <point x="702" y="-4" type="line"/>
      <point x="702" y="-28" type="line"/>
      <point x="609" y="-62"/>
      <point x="559" y="-121"/>
      <point x="559" y="-204" type="curve" smooth="yes"/>
      <point x="559" y="-206" type="line" smooth="yes"/>
      <point x="559" y="-310"/>
      <point x="639" y="-363"/>
    </contour>
    <component base="U"/>
  </outline>
</glyph>
<glyph name="Schwa" format="2">
  <advance width="1175"/>
  <unicode hex="018F"/>
  <anchor x="586" y="0" name="bottom"/>
  <anchor x="586" y="1278" name="top"/>
  <outline>
    <contour>
      <point x="583" y="-26" type="curve" smooth="yes"/>
      <point x="905" y="-26"/>
      <point x="1077" y="160"/>
      <point x="1077" y="474" type="curve" smooth="yes"/>
      <point x="1077" y="768" type="line" smooth="yes"/>
      <point x="1077" y="1115"/>
      <point x="899" y="1304"/>
      <point x="557" y="1304" type="curve" smooth="yes"/>
      <point x="385" y="1304"/>
      <point x="241" y="1261"/>
      <point x="133" y="1195" type="curve"/>
      <point x="112" y="1009" type="line"/>
      <point x="231" y="1083"/>
      <point x="374" y="1130"/>
      <point x="518" y="1130" type="curve" smooth="yes"/>
      <point x="772" y="1130"/>
      <point x="873" y="997"/>
      <point x="873" y="767" type="curve" smooth="yes"/>
      <point x="873" y="451" type="line" smooth="yes"/>
      <point x="873" y="258"/>
      <point x="781" y="141"/>
      <point x="583" y="141" type="curve" smooth="yes"/>
      <point x="387" y="141"/>
      <point x="290" y="253"/>
      <point x="290" y="446" type="curve" smooth="yes"/>
      <point x="290" y="623" type="line"/>
      <point x="243" y="569" type="line"/>
      <point x="955" y="569" type="line"/>
      <point x="955" y="726" type="line"/>
      <point x="104" y="726" type="line"/>
      <point x="96" y="670"/>
      <point x="91" y="600"/>
      <point x="91" y="534" type="curve" smooth="yes"/>
      <point x="91" y="458" type="line" smooth="yes"/>
      <point x="91" y="166"/>
      <point x="256" y="-26"/>
    </contour>
  </outline>
</glyph>
<glyph name="florin" format="2">
  <advance width="866"/>
  <unicode hex="0192"/>
  <outline>
    <contour>
      <point x="47" y="782" type="line"/>
      <point x="768" y="782" type="line"/>
      <point x="779" y="938" type="line"/>
      <point x="57" y="938" type="line"/>
    </contour>
    <contour>
      <point x="839" y="1150" type="curve"/>
      <point x="831" y="1305" type="line"/>
      <point x="755" y="1333"/>
      <point x="668" y="1353"/>
      <point x="564" y="1353" type="curve" smooth="yes"/>
      <point x="327" y="1353"/>
      <point x="228" y="1255"/>
      <point x="212" y="1025" type="curve" smooth="yes"/>
      <point x="114" y="-344" type="line"/>
      <point x="304" y="-344" type="line"/>
      <point x="399" y="1015" type="line" smooth="yes"/>
      <point x="408" y="1142"/>
      <point x="465" y="1191"/>
      <point x="607" y="1191" type="curve" smooth="yes"/>
      <point x="690" y="1191"/>
      <point x="767" y="1175"/>
    </contour>
  </outline>
</glyph>
<glyph name="Oogonek" format="2">
  <advance width="1241"/>
  <unicode hex="01EA"/>
  <anchor x="607" y="0" name="bottom"/>
  <anchor x="607" y="639" name="center"/>
  <anchor x="876" y="5" name="ogonek"/>
  <anchor x="607" y="1278" name="top"/>
  <anchor x="6" y="1278" name="topleft"/>
  <anchor x="1059" y="1278" name="topright"/>
  <outline>
    <contour>
      <point x="748" y="-363" type="curve" smooth="yes"/>
      <point x="799" y="-363"/>
      <point x="849" y="-355"/>
      <point x="886" y="-339" type="curve"/>
      <point x="905" y="-205" type="line"/>
      <point x="870" y="-218"/>
      <point x="835" y="-224"/>
      <point x="799" y="-224" type="curve" smooth="yes"/>
      <point x="729" y="-224"/>
      <point x="689" y="-199"/>
      <point x="689" y="-146" type="curve" smooth="yes"/>
      <point x="689" y="-145" type="line" smooth="yes"/>
      <point x="689" y="-83"/>
      <point x="733" y="-36"/>
      <point x="812" y="7" type="curve"/>
      <point x="812" y="60" type="line"/>
      <point x="685" y="-4" type="line"/>
      <point x="685" y="-28" type="line"/>
      <point x="592" y="-62"/>
      <point x="542" y="-121"/>
      <point x="542" y="-204" type="curve" smooth="yes"/>
      <point x="542" y="-206" type="line" smooth="yes"/>
      <point x="542" y="-310"/>
      <point x="622" y="-363"/>
    </contour>
    <component base="O"/>
  </outline>
</glyph>
<glyph name="oogonek" format="2">
  <advance width="1065"/>
  <unicode hex="01EB"/>
  <anchor x="526" y="0" name="bottom"/>
  <anchor x="531" y="400" name="center"/>
  <anchor x="772" y="5" name="ogonek"/>
  <anchor x="526" y="978" name="top"/>
  <anchor x="953" y="978" name="topright"/>
  <outline>
    <contour>
      <point x="668" y="-363" type="curve" smooth="yes"/>
      <point x="720" y="-363"/>
      <point x="769" y="-354"/>
      <point x="807" y="-338" type="curve"/>
      <point x="826" y="-204" type="line"/>
      <point x="789" y="-217"/>
      <point x="755" y="-224"/>
      <point x="718" y="-224" type="curve" smooth="yes"/>
      <point x="647" y="-224"/>
      <point x="605" y="-198"/>
      <point x="605" y="-144" type="curve" smooth="yes"/>
      <point x="605" y="-143" type="line" smooth="yes"/>
      <point x="605" y="-76"/>
      <point x="650" y="-34"/>
      <point x="727" y="9" type="curve"/>
      <point x="727" y="23" type="line"/>
      <point x="595" y="-7" type="line"/>
      <point x="595" y="-28" type="line"/>
      <point x="507" y="-64"/>
      <point x="458" y="-122"/>
      <point x="458" y="-205" type="curve" smooth="yes"/>
      <point x="458" y="-206" type="line" smooth="yes"/>
      <point x="458" y="-310"/>
      <point x="540" y="-363"/>
    </contour>
    <component base="o"/>
  </outline>
</glyph>
<glyph name="Odieresismacron" format="2">
  <advance width="1214"/>
  <unicode hex="022A"/>
  <anchor x="607" y="0" name="bottom"/>
  <anchor x="607" y="639" name="center"/>
  <anchor x="876" y="5" name="ogonek"/>
  <anchor x="607" y="1602" name="top"/>
  <anchor x="6" y="1278" name="topleft"/>
  <anchor x="1059" y="1278" name="topright"/>
  <outline>
    <contour>
      <point x="322" y="1767" type="line"/>
      <point x="890" y="1767" type="line"/>
      <point x="890" y="1898" type="line"/>
      <point x="322" y="1898" type="line"/>
    </contour>
    <component base="O"/>
    <component base="dieresiscomb.case" xOffset="250"/>
  </outline>
</glyph>
<glyph name="odieresismacron" format="2">
  <advance width="1051"/>
  <unicode hex="022B"/>
  <anchor x="526" y="1628.16" name="top"/>
  <anchor x="526" y="0" name="bottom"/>
  <anchor x="531" y="400" name="center"/>
  <anchor x="772" y="5" name="ogonek"/>
  <anchor x="953" y="978" name="topright"/>
  <outline>
    <contour>
      <point x="242" y="1486" type="line"/>
      <point x="810" y="1486" type="line"/>
      <point x="810" y="1616" type="line"/>
      <point x="242" y="1616" type="line"/>
    </contour>
    <component base="o"/>
    <component base="dieresiscomb" xOffset="169"/>
  </outline>
</glyph>
<glyph name="Otildemacron" format="2">
  <advance width="1214"/>
  <unicode hex="022C"/>
  <anchor x="607" y="1918.12" name="top"/>
  <anchor x="607" y="0" name="bottom"/>
  <anchor x="607" y="639" name="center"/>
  <anchor x="876" y="5" name="ogonek"/>
  <anchor x="6" y="1278" name="topleft"/>
  <anchor x="1059" y="1278" name="topright"/>
  <outline>
    <contour>
      <point x="322" y="1776" type="line"/>
      <point x="890" y="1776" type="line"/>
      <point x="890" y="1907" type="line"/>
      <point x="322" y="1907" type="line"/>
    </contour>
    <component base="O"/>
    <component base="tildecomb.case" xOffset="211"/>
  </outline>
</glyph>
<glyph name="otildemacron" format="2">
  <advance width="1051"/>
  <unicode hex="022D"/>
  <anchor x="526" y="1628.16" name="top"/>
  <anchor x="526" y="0" name="bottom"/>
  <anchor x="531" y="400" name="center"/>
  <anchor x="772" y="5" name="ogonek"/>
  <anchor x="953" y="978" name="topright"/>
  <outline>
    <contour>
      <point x="242" y="1486" type="line"/>
      <point x="810" y="1486" type="line"/>
      <point x="810" y="1616" type="line"/>
      <point x="242" y="1616" type="line"/>
    </contour>
    <component base="o"/>
    <component base="tildecomb" xOffset="137"/>
  </outline>
</glyph>
<glyph name="Odotaccentmacron" format="2">
  <advance width="1214"/>
  <unicode hex="0230"/>
  <anchor x="607" y="0" name="bottom"/>
  <anchor x="607" y="639" name="center"/>
  <anchor x="876" y="5" name="ogonek"/>
  <anchor x="606" y="1615" name="top"/>
  <anchor x="6" y="1278" name="topleft"/>
  <anchor x="1059" y="1278" name="topright"/>
  <outline>
    <contour>
      <point x="321" y="1780" type="line"/>
      <point x="889" y="1780" type="line"/>
      <point x="889" y="1911" type="line"/>
      <point x="321" y="1911" type="line"/>
    </contour>
    <component base="O"/>
    <component base="dotaccentcomb.case" xOffset="397"/>
  </outline>
</glyph>
<glyph name="jdotless" format="2">
  <advance width="475"/>
  <unicode hex="0237"/>
  <anchor x="238" y="-344" name="bottom"/>
  <anchor x="238" y="978" name="top"/>
  <outline>
    <contour>
      <point x="152" y="188" type="line"/>
      <point x="348" y="188" type="line"/>
      <point x="348" y="978" type="line"/>
      <point x="152" y="978" type="line"/>
    </contour>
    <component base="jbottom"/>
  </outline>
</glyph>
<glyph name="schwa" format="2">
  <advance width="1010"/>
  <unicode hex="0259"/>
  <outline>
    <contour>
      <point x="500" y="-25" type="curve" smooth="yes"/>
      <point x="777" y="-25"/>
      <point x="925" y="133"/>
      <point x="925" y="399" type="curve" smooth="yes"/>
      <point x="925" y="579" type="line" smooth="yes"/>
      <point x="925" y="853"/>
      <point x="784" y="1002"/>
      <point x="488" y="1002" type="curve" smooth="yes"/>
      <point x="335" y="1002"/>
      <point x="207" y="966"/>
      <point x="111" y="911" type="curve"/>
      <point x="93" y="744" type="line"/>
      <point x="200" y="801"/>
      <point x="318" y="837"/>
      <point x="455" y="837" type="curve" smooth="yes"/>
      <point x="659" y="837"/>
      <point x="730" y="742"/>
      <point x="730" y="602" type="curve" smooth="yes"/>
      <point x="730" y="505" type="line"/>
      <point x="730" y="482" type="line"/>
      <point x="730" y="380" type="line" smooth="yes"/>
      <point x="730" y="226"/>
      <point x="655" y="134"/>
      <point x="500" y="134" type="curve" smooth="yes"/>
      <point x="343" y="134"/>
      <point x="265" y="224"/>
      <point x="265" y="376" type="curve" smooth="yes"/>
      <point x="265" y="437"/>
      <point x="266" y="499"/>
      <point x="268" y="568" type="curve"/>
      <point x="88" y="568" type="line"/>
      <point x="81" y="525"/>
      <point x="77" y="478"/>
      <point x="77" y="432" type="curve" smooth="yes"/>
      <point x="77" y="385" type="line" smooth="yes"/>
      <point x="77" y="138"/>
      <point x="219" y="-25"/>
    </contour>
    <contour>
      <point x="128" y="420" type="line"/>
      <point x="821" y="420" type="line"/>
      <point x="821" y="568" type="line"/>
      <point x="128" y="568" type="line"/>
    </contour>
  </outline>
</glyph>
<glyph name="primemod" format="2">
  <advance width="361"/>
  <unicode hex="02B9"/>
  <outline>
    <contour>
      <point x="252" y="886" type="line"/>
      <point x="271" y="1324" type="line"/>
      <point x="90" y="1324" type="line"/>
      <point x="107" y="886" type="line"/>
    </contour>
  </outline>
</glyph>
<glyph name="doubleprimemod" format="2">
  <advance width="683"/>
  <unicode hex="02BA"/>
  <outline>
    <contour>
      <point x="429" y="886" type="line"/>
      <point x="574" y="886" type="line"/>
      <point x="593" y="1324" type="line"/>
      <point x="412" y="1324" type="line"/>
    </contour>
    <contour>
      <point x="107" y="886" type="line"/>
      <point x="252" y="886" type="line"/>
      <point x="271" y="1324" type="line"/>
      <point x="90" y="1324" type="line"/>
    </contour>
  </outline>
</glyph>
<glyph name="commaturnedmod" format="2">
  <advance width="429"/>
  <unicode hex="02BB"/>
  <anchor x="215" y="978" name="_top"/>
  <anchor x="215" y="1348" name="top"/>
  <outline>
    <contour>
      <point x="123" y="1095" type="curve"/>
      <point x="291" y="1095" type="line"/>
      <point x="289" y="1120"/>
      <point x="287" y="1144"/>
      <point x="287" y="1170" type="curve" smooth="yes"/>
      <point x="287" y="1267"/>
      <point x="308" y="1343"/>
      <point x="351" y="1415" type="curve"/>
      <point x="223" y="1452" type="line"/>
      <point x="147" y="1366"/>
      <point x="118" y="1278"/>
      <point x="118" y="1168" type="curve" smooth="yes"/>
      <point x="118" y="1140"/>
      <point x="121" y="1114"/>
    </contour>
  </outline>
</glyph>
<glyph name="apostrophemod" format="2">
  <advance width="433"/>
  <unicode hex="02BC"/>
  <outline>
    <contour>
      <point x="327" y="1278" type="curve"/>
      <point x="160" y="1278" type="line"/>
      <point x="165" y="1241"/>
      <point x="167" y="1210"/>
      <point x="167" y="1174" type="curve" smooth="yes"/>
      <point x="167" y="1054"/>
      <point x="146" y="957"/>
      <point x="101" y="868" type="curve"/>
      <point x="224" y="834" type="line"/>
      <point x="303" y="936"/>
      <point x="335" y="1048"/>
      <point x="335" y="1183" type="curve" smooth="yes"/>
      <point x="335" y="1222"/>
      <point x="330" y="1256"/>
    </contour>
  </outline>
</glyph>
<glyph name="ringhalfright" format="2">
  <advance width="399"/>
  <unicode hex="02BE"/>
  <anchor x="101" y="978" name="_top"/>
  <anchor x="101" y="1394" name="top"/>
  <outline>
    <contour>
      <point x="100" y="1323" type="line"/>
      <point x="155" y="1323"/>
      <point x="184" y="1297"/>
      <point x="184" y="1250" type="curve" smooth="yes"/>
      <point x="184" y="1247" type="line" smooth="yes"/>
      <point x="184" y="1200"/>
      <point x="155" y="1174"/>
      <point x="100" y="1174" type="curve"/>
      <point x="100" y="1078" type="line"/>
      <point x="234" y="1078"/>
      <point x="299" y="1146"/>
      <point x="299" y="1246" type="curve" smooth="yes"/>
      <point x="299" y="1250" type="line" smooth="yes"/>
      <point x="299" y="1352"/>
      <point x="234" y="1419"/>
      <point x="100" y="1419" type="curve"/>
    </contour>
  </outline>
</glyph>
<glyph name="ringhalfleft" format="2">
  <advance width="399"/>
  <unicode hex="02BF"/>
  <anchor x="299" y="978" name="_top"/>
  <anchor x="299" y="1394" name="top"/>
  <outline>
    <contour>
      <point x="299" y="1323" type="curve"/>
      <point x="299" y="1419" type="line"/>
      <point x="165" y="1419"/>
      <point x="100" y="1352"/>
      <point x="100" y="1250" type="curve" smooth="yes"/>
      <point x="100" y="1246" type="line" smooth="yes"/>
      <point x="100" y="1146"/>
      <point x="165" y="1078"/>
      <point x="299" y="1078" type="curve"/>
      <point x="299" y="1174" type="line"/>
      <point x="244" y="1174"/>
      <point x="215" y="1200"/>
      <point x="215" y="1247" type="curve" smooth="yes"/>
      <point x="215" y="1250" type="line" smooth="yes"/>
      <point x="215" y="1297"/>
      <point x="244" y="1323"/>
    </contour>
  </outline>
</glyph>
<glyph name="verticallinemod" format="2">
  <advance width="355"/>
  <unicode hex="02C8"/>
  <anchor x="178" y="978" name="_top"/>
  <anchor x="178" y="1390" name="top"/>
  <outline>
    <contour>
      <point x="100" y="1096" type="line"/>
      <point x="255" y="1096" type="line"/>
      <point x="255" y="1441" type="line"/>
      <point x="100" y="1441" type="line"/>
    </contour>
  </outline>
</glyph>
<glyph name="macroncomb" format="2">
  <unicode hex="0304"/>
  <anchor x="389" y="978" name="_top"/>
  <anchor x="389" y="1292" name="top"/>
  <outline>
    <contour>
      <point x="105" y="1147" type="line"/>
      <point x="673" y="1147" type="line"/>
      <point x="673" y="1280" type="line"/>
      <point x="105" y="1280" type="line"/>
    </contour>
  </outline>
</glyph>
<glyph name="brevecomb" format="2">
  <unicode hex="0306"/>
  <anchor x="375" y="978" name="_top"/>
  <anchor x="376" y="1333" name="top"/>
  <outline>
    <contour>
      <point x="375" y="1085" type="curve" smooth="yes"/>
      <point x="565" y="1085"/>
      <point x="644" y="1188"/>
      <point x="647" y="1368" type="curve"/>
      <point x="513" y="1368" type="line"/>
      <point x="508" y="1265"/>
      <point x="466" y="1211"/>
      <point x="375" y="1211" type="curve" smooth="yes"/>
      <point x="284" y="1211"/>
      <point x="243" y="1266"/>
      <point x="238" y="1368" type="curve"/>
      <point x="104" y="1368" type="line"/>
      <point x="107" y="1188"/>
      <point x="187" y="1085"/>
    </contour>
  </outline>
</glyph>
<glyph name="hookabovecomb" format="2">
  <unicode hex="0309"/>
  <anchor x="232" y="978" name="_top"/>
  <anchor x="242" y="1411" name="top"/>
  <outline>
    <contour>
      <point x="182" y="1079" type="curve"/>
      <point x="162" y="1191" type="line"/>
      <point x="250" y="1211"/>
      <point x="293" y="1232"/>
      <point x="293" y="1279" type="curve" smooth="yes"/>
      <point x="293" y="1314"/>
      <point x="267" y="1329"/>
      <point x="218" y="1329" type="curve" smooth="yes"/>
      <point x="177" y="1329"/>
      <point x="138" y="1318"/>
      <point x="104" y="1303" type="curve"/>
      <point x="113" y="1417" type="line"/>
      <point x="148" y="1433"/>
      <point x="200" y="1446"/>
      <point x="256" y="1446" type="curve" smooth="yes"/>
      <point x="370" y="1446"/>
      <point x="437" y="1394"/>
      <point x="437" y="1293" type="curve" smooth="yes"/>
      <point x="437" y="1168"/>
      <point x="345" y="1108"/>
    </contour>
  </outline>
</glyph>
<glyph name="hungarumlautcomb" format="2">
  <unicode hex="030B"/>
  <anchor x="323" y="978" name="_top"/>
  <anchor x="445" y="1333" name="top"/>
  <outline>
    <contour>
      <point x="537" y="1368" type="line"/>
      <point x="394" y="1094" type="line"/>
      <point x="394" y="1093" type="line"/>
      <point x="542" y="1093" type="line"/>
      <point x="721" y="1366" type="line"/>
      <point x="721" y="1368" type="line"/>
    </contour>
    <contour>
      <point x="242" y="1368" type="line"/>
      <point x="100" y="1094" type="line"/>
      <point x="100" y="1093" type="line"/>
      <point x="248" y="1093" type="line"/>
      <point x="426" y="1363" type="line"/>
      <point x="426" y="1368" type="line"/>
    </contour>
  </outline>
</glyph>
<glyph name="caroncomb" format="2">
  <unicode hex="030C"/>
  <anchor x="392" y="978" name="_top"/>
  <anchor x="392" y="1325" name="top"/>
  <outline>
    <contour>
      <point x="287" y="1093" type="line"/>
      <point x="497" y="1093" type="line"/>
      <point x="684" y="1365" type="line"/>
      <point x="684" y="1368" type="line"/>
      <point x="530" y="1368" type="line"/>
      <point x="396" y="1200" type="line"/>
      <point x="388" y="1200" type="line"/>
      <point x="254" y="1368" type="line"/>
      <point x="100" y="1368" type="line"/>
      <point x="100" y="1365" type="line"/>
    </contour>
  </outline>
</glyph>
<glyph name="dblgravecomb" format="2">
  <unicode hex="030F"/>
  <anchor x="501" y="978" name="_top"/>
  <anchor x="376" y="1336" name="top"/>
  <outline>
    <contour>
      <point x="286" y="1368" type="line"/>
      <point x="102" y="1368" type="line"/>
      <point x="102" y="1366" type="line"/>
      <point x="281" y="1093" type="line"/>
      <point x="429" y="1093" type="line"/>
      <point x="429" y="1094" type="line"/>
    </contour>
    <contour>
      <point x="581" y="1368" type="line"/>
      <point x="397" y="1368" type="line"/>
      <point x="397" y="1363" type="line"/>
      <point x="575" y="1093" type="line"/>
      <point x="723" y="1093" type="line"/>
      <point x="723" y="1094" type="line"/>
    </contour>
  </outline>
</glyph>
<glyph name="breveinvertedcomb" format="2">
  <unicode hex="0311"/>
  <anchor x="375" y="978" name="_top"/>
  <anchor x="376" y="1335" name="top"/>
  <outline>
    <contour>
      <point x="375" y="1376" type="curve" smooth="yes"/>
      <point x="187" y="1376"/>
      <point x="107" y="1273"/>
      <point x="104" y="1093" type="curve"/>
      <point x="238" y="1093" type="line"/>
      <point x="243" y="1195"/>
      <point x="284" y="1250"/>
      <point x="375" y="1250" type="curve" smooth="yes"/>
      <point x="466" y="1250"/>
      <point x="508" y="1196"/>
      <point x="513" y="1093" type="curve"/>
      <point x="647" y="1093" type="line"/>
      <point x="644" y="1273"/>
      <point x="565" y="1376"/>
    </contour>
  </outline>
</glyph>
<glyph name="commaturnedabovecomb" format="2">
  <unicode hex="0312"/>
  <anchor x="215" y="978" name="_top"/>
  <anchor x="215" y="1388" name="top"/>
  <outline>
    <contour>
      <point x="124" y="1094" type="curve"/>
      <point x="291" y="1094" type="line"/>
      <point x="289" y="1119"/>
      <point x="287" y="1143"/>
      <point x="287" y="1169" type="curve" smooth="yes"/>
      <point x="287" y="1266"/>
      <point x="308" y="1342"/>
      <point x="350" y="1414" type="curve"/>
      <point x="223" y="1451" type="line"/>
      <point x="147" y="1365"/>
      <point x="119" y="1277"/>
      <point x="119" y="1167" type="curve" smooth="yes"/>
      <point x="119" y="1139"/>
      <point x="122" y="1113"/>
    </contour>
  </outline>
</glyph>
<glyph name="horncomb" format="2">
  <unicode hex="031B"/>
  <anchor x="323" y="978" name="_topright"/>
  <anchor x="418" y="1215" name="topright"/>
  <outline>
    <contour>
      <point x="156" y="892" type="line"/>
      <point x="327" y="924"/>
      <point x="401" y="997"/>
      <point x="401" y="1116" type="curve" smooth="yes"/>
      <point x="401" y="1156"/>
      <point x="393" y="1189"/>
      <point x="382" y="1219" type="curve"/>
      <point x="208" y="1219" type="line"/>
      <point x="217" y="1190"/>
      <point x="225" y="1158"/>
      <point x="225" y="1124" type="curve" smooth="yes"/>
      <point x="225" y="1046"/>
      <point x="183" y="999"/>
      <point x="99" y="972" type="curve"/>
    </contour>
  </outline>
</glyph>
<glyph name="dotbelowcomb" format="2">
  <unicode hex="0323"/>
  <anchor x="209" y="0" name="_bottom"/>
  <anchor x="209" y="-372" name="bottom"/>
  <outline>
    <contour>
      <point x="209" y="-365" type="curve" smooth="yes"/>
      <point x="283" y="-365"/>
      <point x="319" y="-325"/>
      <point x="319" y="-258" type="curve" smooth="yes"/>
      <point x="319" y="-251" type="line" smooth="yes"/>
      <point x="319" y="-184"/>
      <point x="283" y="-144"/>
      <point x="209" y="-144" type="curve" smooth="yes"/>
      <point x="136" y="-144"/>
      <point x="100" y="-184"/>
      <point x="100" y="-251" type="curve" smooth="yes"/>
      <point x="100" y="-258" type="line" smooth="yes"/>
      <point x="100" y="-325"/>
      <point x="136" y="-365"/>
    </contour>
  </outline>
</glyph>
<glyph name="commaaccentcomb" format="2">
  <unicode hex="0326"/>
  <anchor x="214" y="0" name="_bottom"/>
  <anchor x="215" y="-469" name="bottom"/>
  <outline>
    <contour>
      <point x="301" y="-112" type="curve"/>
      <point x="133" y="-112" type="line"/>
      <point x="135" y="-137"/>
      <point x="137" y="-161"/>
      <point x="137" y="-187" type="curve" smooth="yes"/>
      <point x="137" y="-284"/>
      <point x="116" y="-360"/>
      <point x="73" y="-432" type="curve"/>
      <point x="201" y="-469" type="line"/>
      <point x="277" y="-383"/>
      <point x="306" y="-295"/>
      <point x="306" y="-185" type="curve" smooth="yes"/>
      <point x="306" y="-157"/>
      <point x="303" y="-131"/>
    </contour>
  </outline>
</glyph>
<glyph name="ogonekcomb" format="2">
  <unicode hex="0328"/>
  <anchor x="449" y="0" name="_ogonek"/>
  <outline>
    <contour>
      <point x="318" y="-363" type="curve" smooth="yes"/>
      <point x="365" y="-363"/>
      <point x="410" y="-355"/>
      <point x="444" y="-341" type="curve"/>
      <point x="463" y="-207" type="line"/>
      <point x="431" y="-218"/>
      <point x="400" y="-224"/>
      <point x="367" y="-224" type="curve" smooth="yes"/>
      <point x="306" y="-224"/>
      <point x="269" y="-199"/>
      <point x="269" y="-146" type="curve" smooth="yes"/>
      <point x="269" y="-145" type="line" smooth="yes"/>
      <point x="269" y="-83"/>
      <point x="320" y="-42"/>
      <point x="411" y="0" type="curve"/>
      <point x="411" y="15" type="line"/>
      <point x="284" y="14" type="line"/>
      <point x="284" y="-5" type="line"/>
      <point x="178" y="-46"/>
      <point x="122" y="-106"/>
      <point x="122" y="-204" type="curve" smooth="yes"/>
      <point x="122" y="-205" type="line" smooth="yes"/>
      <point x="122" y="-310"/>
      <point x="199" y="-363"/>
    </contour>
  </outline>
</glyph>
<glyph name="strokeshortcomb" format="2">
  <unicode hex="0335"/>
  <anchor x="422" y="654" name="_center"/>
  <outline>
    <contour>
      <point x="107" y="598" type="line"/>
      <point x="736" y="598" type="line"/>
      <point x="736" y="710" type="line"/>
      <point x="107" y="711" type="line"/>
    </contour>
  </outline>
</glyph>
<glyph name="pi" format="2">
  <advance width="1147"/>
  <unicode hex="03C0"/>
  <outline>
    <contour>
      <point x="62" y="810" type="line"/>
      <point x="1068" y="810" type="line"/>
      <point x="1085" y="966" type="line"/>
      <point x="62" y="966" type="line"/>
    </contour>
    <contour>
      <point x="230" y="0" type="line"/>
      <point x="424" y="0" type="line"/>
      <point x="424" y="899" type="line"/>
      <point x="230" y="899" type="line"/>
    </contour>
    <contour>
      <point x="709" y="-1" type="line"/>
      <point x="903" y="-1" type="line"/>
      <point x="903" y="898" type="line"/>
      <point x="709" y="898" type="line"/>
    </contour>
  </outline>
</glyph>
<glyph name="llinebelow" format="2">
  <advance width="452"/>
  <unicode hex="1E3B"/>
  <anchor x="227.265" y="-289" name="bottom"/>
  <anchor x="227" y="657" name="center"/>
  <anchor x="227" y="1324" name="top"/>
  <anchor x="466" y="1324" name="topright"/>
  <outline>
    <contour>
      <point x="-24" y="-302" type="line"/>
      <point x="479" y="-302" type="line"/>
      <point x="479" y="-169" type="line"/>
      <point x="-24" y="-169" type="line"/>
    </contour>
    <component base="l"/>
  </outline>
</glyph>
<glyph name="Otildedieresis" format="2">
  <advance width="1214"/>
  <unicode hex="1E4E"/>
  <anchor x="607" y="1928.96" name="top"/>
  <anchor x="607" y="0" name="bottom"/>
  <anchor x="607" y="639" name="center"/>
  <anchor x="876" y="5" name="ogonek"/>
  <anchor x="6" y="1278" name="topleft"/>
  <anchor x="1059" y="1278" name="topright"/>
  <outline>
    <contour>
      <point x="449" y="1750" type="curve" smooth="yes"/>
      <point x="517" y="1750"/>
      <point x="549" y="1787"/>
      <point x="549" y="1852" type="curve" smooth="yes"/>
      <point x="549" y="1859" type="line" smooth="yes"/>
      <point x="549" y="1924"/>
      <point x="517" y="1961"/>
      <point x="449" y="1961" type="curve" smooth="yes"/>
      <point x="383" y="1961"/>
      <point x="350" y="1924"/>
      <point x="350" y="1859" type="curve" smooth="yes"/>
      <point x="350" y="1852" type="line" smooth="yes"/>
      <point x="350" y="1787"/>
      <point x="383" y="1750"/>
    </contour>
    <contour>
      <point x="765" y="1750" type="curve" smooth="yes"/>
      <point x="831" y="1750"/>
      <point x="864" y="1787"/>
      <point x="864" y="1852" type="curve" smooth="yes"/>
      <point x="864" y="1859" type="line" smooth="yes"/>
      <point x="864" y="1924"/>
      <point x="831" y="1961"/>
      <point x="765" y="1961" type="curve" smooth="yes"/>
      <point x="698" y="1961"/>
      <point x="666" y="1924"/>
      <point x="666" y="1859" type="curve" smooth="yes"/>
      <point x="666" y="1852" type="line" smooth="yes"/>
      <point x="666" y="1787"/>
      <point x="698" y="1750"/>
    </contour>
    <component base="O"/>
    <component base="tildecomb.case" xOffset="211"/>
  </outline>
</glyph>
<glyph name="otildedieresis" format="2">
  <advance width="1051"/>
  <unicode hex="1E4F"/>
  <anchor x="526" y="1655.6" name="top"/>
  <anchor x="526" y="0" name="bottom"/>
  <anchor x="531" y="400" name="center"/>
  <anchor x="772" y="5" name="ogonek"/>
  <anchor x="953" y="978" name="topright"/>
  <outline>
    <contour>
      <point x="368" y="1462" type="curve" smooth="yes"/>
      <point x="436" y="1462"/>
      <point x="468" y="1499"/>
      <point x="468" y="1564" type="curve" smooth="yes"/>
      <point x="468" y="1571" type="line" smooth="yes"/>
      <point x="468" y="1636"/>
      <point x="436" y="1673"/>
      <point x="368" y="1673" type="curve" smooth="yes"/>
      <point x="302" y="1673"/>
      <point x="269" y="1636"/>
      <point x="269" y="1571" type="curve" smooth="yes"/>
      <point x="269" y="1564" type="line" smooth="yes"/>
      <point x="269" y="1499"/>
      <point x="302" y="1462"/>
    </contour>
    <contour>
      <point x="684" y="1462" type="curve" smooth="yes"/>
      <point x="750" y="1462"/>
      <point x="783" y="1499"/>
      <point x="783" y="1564" type="curve" smooth="yes"/>
      <point x="783" y="1571" type="line" smooth="yes"/>
      <point x="783" y="1636"/>
      <point x="750" y="1673"/>
      <point x="684" y="1673" type="curve" smooth="yes"/>
      <point x="617" y="1673"/>
      <point x="585" y="1636"/>
      <point x="585" y="1571" type="curve" smooth="yes"/>
      <point x="585" y="1564" type="line" smooth="yes"/>
      <point x="585" y="1499"/>
      <point x="617" y="1462"/>
    </contour>
    <component base="o"/>
    <component base="tildecomb" xOffset="137"/>
  </outline>
</glyph>
<glyph name="Sacutedotaccent" format="2">
  <advance width="1049"/>
  <unicode hex="1E64"/>
  <anchor x="515" y="1948.85" name="top"/>
  <anchor x="516" y="0" name="bottom"/>
  <outline>
    <contour>
      <point x="515" y="1755" type="curve" smooth="yes"/>
      <point x="586" y="1755"/>
      <point x="621" y="1792"/>
      <point x="621" y="1858" type="curve" smooth="yes"/>
      <point x="621" y="1863" type="line" smooth="yes"/>
      <point x="621" y="1926"/>
      <point x="586" y="1965"/>
      <point x="515" y="1965" type="curve" smooth="yes"/>
      <point x="445" y="1965"/>
      <point x="410" y="1926"/>
      <point x="410" y="1863" type="curve" smooth="yes"/>
      <point x="410" y="1858" type="line" smooth="yes"/>
      <point x="410" y="1792"/>
      <point x="445" y="1755"/>
    </contour>
    <component base="S"/>
    <component base="acutecomb.case" xOffset="327"/>
  </outline>
</glyph>
<glyph name="sacutedotaccent" format="2">
  <advance width="892"/>
  <unicode hex="1E65"/>
  <anchor x="446.8" y="1668.6" name="top"/>
  <anchor x="445" y="0" name="bottom"/>
  <outline>
    <contour>
      <point x="446" y="1475" type="curve" smooth="yes"/>
      <point x="518" y="1475"/>
      <point x="554" y="1513"/>
      <point x="554" y="1579" type="curve" smooth="yes"/>
      <point x="554" y="1585" type="line" smooth="yes"/>
      <point x="554" y="1651"/>
      <point x="518" y="1691"/>
      <point x="446" y="1691" type="curve" smooth="yes"/>
      <point x="374" y="1691"/>
      <point x="339" y="1651"/>
      <point x="339" y="1585" type="curve" smooth="yes"/>
      <point x="339" y="1579" type="line" smooth="yes"/>
      <point x="339" y="1513"/>
      <point x="374" y="1475"/>
    </contour>
    <component base="s"/>
    <component base="acutecomb" xOffset="265"/>
  </outline>
</glyph>
<glyph name="Scarondotaccent" format="2">
  <advance width="1049"/>
  <unicode hex="1E66"/>
  <anchor x="515" y="1943.85" name="top"/>
  <anchor x="516" y="0" name="bottom"/>
  <outline>
    <contour>
      <point x="515" y="1750" type="curve" smooth="yes"/>
      <point x="586" y="1750"/>
      <point x="621" y="1787"/>
      <point x="621" y="1853" type="curve" smooth="yes"/>
      <point x="621" y="1858" type="line" smooth="yes"/>
      <point x="621" y="1921"/>
      <point x="586" y="1960"/>
      <point x="515" y="1960" type="curve" smooth="yes"/>
      <point x="445" y="1960"/>
      <point x="410" y="1921"/>
      <point x="410" y="1858" type="curve" smooth="yes"/>
      <point x="410" y="1853" type="line" smooth="yes"/>
      <point x="410" y="1787"/>
      <point x="445" y="1750"/>
    </contour>
    <component base="S"/>
    <component base="caroncomb.case" xOffset="96"/>
  </outline>
</glyph>
<glyph name="scarondotaccent" format="2">
  <advance width="892"/>
  <unicode hex="1E67"/>
  <anchor x="443.8" y="1660.6" name="top"/>
  <anchor x="445" y="0" name="bottom"/>
  <outline>
    <contour>
      <point x="443" y="1467" type="curve" smooth="yes"/>
      <point x="515" y="1467"/>
      <point x="551" y="1505"/>
      <point x="551" y="1571" type="curve" smooth="yes"/>
      <point x="551" y="1577" type="line" smooth="yes"/>
      <point x="551" y="1643"/>
      <point x="515" y="1683"/>
      <point x="443" y="1683" type="curve" smooth="yes"/>
      <point x="371" y="1683"/>
      <point x="336" y="1643"/>
      <point x="336" y="1577" type="curve" smooth="yes"/>
      <point x="336" y="1571" type="line" smooth="yes"/>
      <point x="336" y="1505"/>
      <point x="371" y="1467"/>
    </contour>
    <component base="s"/>
    <component base="caroncomb" xOffset="52"/>
  </outline>
</glyph>
<glyph name="Ohorntilde" format="2">
  <advance width="1214"/>
  <unicode hex="1EE0"/>
  <anchor x="607" y="1611" name="top"/>
  <anchor x="607" y="0" name="bottom"/>
  <anchor x="607" y="639" name="center"/>
  <anchor x="876" y="5" name="ogonek"/>
  <anchor x="6" y="1278" name="topleft"/>
  <anchor x="1194" y="1514" name="topright"/>
  <outline>
    <contour>
      <point x="747" y="1415" type="curve" smooth="yes"/>
      <point x="859" y="1415"/>
      <point x="902" y="1483"/>
      <point x="902" y="1597" type="curve" smooth="yes"/>
      <point x="902" y="1628" type="line"/>
      <point x="779" y="1628" type="line"/>
      <point x="779" y="1619" type="line" smooth="yes"/>
      <point x="779" y="1575"/>
      <point x="766" y="1553"/>
      <point x="728" y="1553" type="curve" smooth="yes"/>
      <point x="660" y="1553"/>
      <point x="572" y="1617"/>
      <point x="467" y="1617" type="curve" smooth="yes"/>
      <point x="354" y="1617"/>
      <point x="311" y="1547"/>
      <point x="311" y="1434" type="curve" smooth="yes"/>
      <point x="311" y="1404" type="line"/>
      <point x="434" y="1404" type="line"/>
      <point x="434" y="1413" type="line" smooth="yes"/>
      <point x="434" y="1455"/>
      <point x="448" y="1478"/>
      <point x="486" y="1478" type="curve" smooth="yes"/>
      <point x="554" y="1478"/>
      <point x="646" y="1415"/>
    </contour>
    <component base="Ohorn"/>
  </outline>
</glyph>
<glyph name="Uhorntilde" format="2">
  <advance width="1234"/>
  <unicode hex="1EEE"/>
  <anchor x="617" y="1611" name="top"/>
  <anchor x="617" y="0" name="bottom"/>
  <anchor x="876" y="5" name="ogonek"/>
  <anchor x="1300" y="1515" name="topright"/>
  <outline>
    <contour>
      <point x="757" y="1415" type="curve" smooth="yes"/>
      <point x="869" y="1415"/>
      <point x="912" y="1483"/>
      <point x="912" y="1597" type="curve" smooth="yes"/>
      <point x="912" y="1628" type="line"/>
      <point x="789" y="1628" type="line"/>
      <point x="789" y="1619" type="line" smooth="yes"/>
      <point x="789" y="1575"/>
      <point x="776" y="1553"/>
      <point x="738" y="1553" type="curve" smooth="yes"/>
      <point x="670" y="1553"/>
      <point x="582" y="1617"/>
      <point x="477" y="1617" type="curve" smooth="yes"/>
      <point x="364" y="1617"/>
      <point x="321" y="1547"/>
      <point x="321" y="1434" type="curve" smooth="yes"/>
      <point x="321" y="1404" type="line"/>
      <point x="444" y="1404" type="line"/>
      <point x="444" y="1413" type="line" smooth="yes"/>
      <point x="444" y="1455"/>
      <point x="458" y="1478"/>
      <point x="496" y="1478" type="curve" smooth="yes"/>
      <point x="564" y="1478"/>
      <point x="656" y="1415"/>
    </contour>
    <component base="Uhorn"/>
  </outline>
</glyph>
<glyph name="dagger" format="2">
  <advance width="900"/>
  <unicode hex="2020"/>
  <outline>
    <contour>
      <point x="53" y="811" type="line"/>
      <point x="451" y="817" type="line"/>
      <point x="848" y="811" type="line"/>
      <point x="848" y="966" type="line"/>
      <point x="451" y="960" type="line"/>
      <point x="53" y="966" type="line"/>
    </contour>
    <contour>
      <point x="350" y="604" type="line"/>
      <point x="350" y="308" type="line"/>
      <point x="395" y="-307" type="line"/>
      <point x="505" y="-307" type="line"/>
      <point x="551" y="309" type="line"/>
      <point x="551" y="604" type="line"/>
      <point x="542" y="878" type="line"/>
      <point x="542" y="900" type="line"/>
      <point x="551" y="1278" type="line"/>
      <point x="350" y="1278" type="line"/>
      <point x="359" y="900" type="line"/>
      <point x="359" y="878" type="line"/>
    </contour>
  </outline>
</glyph>
<glyph name="daggerdbl" format="2">
  <advance width="921"/>
  <unicode hex="2021"/>
  <outline>
    <contour>
      <point x="63" y="811" type="line"/>
      <point x="462" y="817" type="line"/>
      <point x="858" y="811" type="line"/>
      <point x="858" y="966" type="line"/>
      <point x="461" y="960" type="line"/>
      <point x="63" y="966" type="line"/>
    </contour>
    <contour>
      <point x="63" y="161" type="line"/>
      <point x="63" y="6" type="line"/>
      <point x="461" y="12" type="line"/>
      <point x="858" y="6" type="line"/>
      <point x="858" y="161" type="line"/>
      <point x="462" y="155" type="line"/>
    </contour>
    <contour>
      <point x="360" y="-307" type="line"/>
      <point x="561" y="-307" type="line"/>
      <point x="552" y="73" type="line"/>
      <point x="552" y="94" type="line"/>
      <point x="561" y="369" type="line"/>
      <point x="561" y="603" type="line"/>
      <point x="552" y="878" type="line"/>
      <point x="552" y="900" type="line"/>
      <point x="561" y="1278" type="line"/>
      <point x="360" y="1278" type="line"/>
      <point x="369" y="900" type="line"/>
      <point x="369" y="878" type="line"/>
      <point x="360" y="604" type="line"/>
      <point x="360" y="368" type="line"/>
      <point x="369" y="94" type="line"/>
      <point x="369" y="73" type="line"/>
    </contour>
  </outline>
</glyph>
<glyph name="perthousand" format="2">
  <advance width="2184"/>
  <unicode hex="2030"/>
  <outline>
    <contour>
      <point x="1819" y="-26" type="curve" smooth="yes"/>
      <point x="2003" y="-26"/>
      <point x="2104" y="79"/>
      <point x="2104" y="261" type="curve" smooth="yes"/>
      <point x="2104" y="350" type="line" smooth="yes"/>
      <point x="2104" y="532"/>
      <point x="2003" y="635"/>
      <point x="1819" y="635" type="curve" smooth="yes"/>
      <point x="1636" y="635"/>
      <point x="1536" y="530"/>
      <point x="1536" y="350" type="curve" smooth="yes"/>
      <point x="1536" y="261" type="line" smooth="yes"/>
      <point x="1536" y="79"/>
      <point x="1635" y="-26"/>
    </contour>
    <contour>
      <point x="1819" y="109" type="curve" smooth="yes"/>
      <point x="1739" y="109"/>
      <point x="1695" y="160"/>
      <point x="1695" y="257" type="curve" smooth="yes"/>
      <point x="1695" y="353" type="line" smooth="yes"/>
      <point x="1695" y="450"/>
      <point x="1738" y="501"/>
      <point x="1819" y="501" type="curve" smooth="yes"/>
      <point x="1900" y="501"/>
      <point x="1943" y="450"/>
      <point x="1943" y="353" type="curve" smooth="yes"/>
      <point x="1943" y="257" type="line" smooth="yes"/>
      <point x="1943" y="160"/>
      <point x="1901" y="109"/>
    </contour>
    <component base="percent"/>
  </outline>
</glyph>
<glyph name="minute" format="2">
  <advance width="366"/>
  <unicode hex="2032"/>
  <outline>
    <contour>
      <point x="236" y="831" type="line"/>
      <point x="309" y="1324" type="line"/>
      <point x="121" y="1324" type="line"/>
      <point x="90" y="831" type="line"/>
    </contour>
  </outline>
</glyph>
<glyph name="commercialMinusSign" format="2">
  <advance width="801"/>
  <unicode hex="2052"/>
  <outline>
    <contour>
      <point x="79" y="1" type="line"/>
      <point x="230" y="1" type="line"/>
      <point x="723" y="1279" type="line"/>
      <point x="574" y="1279" type="line"/>
    </contour>
    <component base="period" xOffset="-15" yOffset="1068"/>
    <component base="period" xOffset="417"/>
  </outline>
</glyph>
<glyph name="colonsign" format="2">
  <advance width="1021"/>
  <unicode hex="20A1"/>
  <anchor x="563" y="0" name="bottom"/>
  <anchor x="563" y="1278" name="top"/>
  <outline>
    <contour>
      <point x="238" y="-192" type="line"/>
      <point x="365" y="-192" type="line"/>
      <point x="427" y="108" type="line"/>
      <point x="300" y="108" type="line"/>
    </contour>
    <contour>
      <point x="448" y="-192" type="line"/>
      <point x="575" y="-192" type="line"/>
      <point x="632" y="108" type="line"/>
      <point x="505" y="108" type="line"/>
    </contour>
    <contour>
      <point x="441" y="1168" type="line"/>
      <point x="568" y="1168" type="line"/>
      <point x="622" y="1464" type="line"/>
      <point x="495" y="1464" type="line"/>
    </contour>
    <contour>
      <point x="646" y="1168" type="line"/>
      <point x="773" y="1168" type="line"/>
      <point x="830" y="1464" type="line"/>
      <point x="703" y="1464" type="line"/>
    </contour>
    <component base="C"/>
  </outline>
</glyph>
<glyph name="franc" format="2">
  <advance width="1034"/>
  <unicode hex="20A3"/>
  <outline>
    <contour>
      <point x="167" y="0" type="line"/>
      <point x="367" y="0" type="line"/>
      <point x="367" y="1278" type="line"/>
      <point x="167" y="1278" type="line"/>
    </contour>
    <contour>
      <point x="15" y="206" type="line"/>
      <point x="772" y="206" type="line"/>
      <point x="784" y="345" type="line"/>
      <point x="27" y="345" type="line"/>
    </contour>
    <contour>
      <point x="281" y="545" type="line"/>
      <point x="941" y="545" type="line"/>
      <point x="941" y="713" type="line"/>
      <point x="281" y="713" type="line"/>
    </contour>
    <contour>
      <point x="225" y="1110" type="line"/>
      <point x="956" y="1110" type="line"/>
      <point x="956" y="1278" type="line"/>
      <point x="225" y="1278" type="line"/>
    </contour>
  </outline>
</glyph>
<glyph name="lira" format="2">
  <advance width="1080"/>
  <unicode hex="20A4"/>
  <outline>
    <contour>
      <point x="315" y="170" type="line"/>
      <point x="315" y="180" type="line"/>
      <point x="419" y="227"/>
      <point x="475" y="305"/>
      <point x="475" y="470" type="curve" smooth="yes"/>
      <point x="475" y="610"/>
      <point x="408" y="770"/>
      <point x="408" y="911" type="curve" smooth="yes"/>
      <point x="408" y="1058"/>
      <point x="486" y="1131"/>
      <point x="677" y="1131" type="curve" smooth="yes"/>
      <point x="772" y="1131"/>
      <point x="863" y="1113"/>
      <point x="954" y="1076" type="curve"/>
      <point x="938" y="1245" type="line"/>
      <point x="854" y="1279"/>
      <point x="742" y="1302"/>
      <point x="632" y="1302" type="curve" smooth="yes"/>
      <point x="336" y="1302"/>
      <point x="200" y="1180"/>
      <point x="200" y="936" type="curve" smooth="yes"/>
      <point x="200" y="774"/>
      <point x="271" y="608"/>
      <point x="270" y="454" type="curve" smooth="yes"/>
      <point x="270" y="300"/>
      <point x="228" y="205"/>
      <point x="114" y="175" type="curve" smooth="yes"/>
      <point x="84" y="167" type="line"/>
      <point x="84" y="0" type="line"/>
      <point x="1014" y="0" type="line"/>
      <point x="1014" y="170" type="line"/>
    </contour>
    <contour>
      <point x="87" y="880" type="line"/>
      <point x="73" y="733" type="line"/>
      <point x="889" y="733" type="line"/>
      <point x="902" y="880" type="line"/>
    </contour>
    <contour>
      <point x="87" y="565" type="line"/>
      <point x="73" y="418" type="line"/>
      <point x="889" y="418" type="line"/>
      <point x="902" y="565" type="line"/>
    </contour>
  </outline>
</glyph>
<glyph name="naira" format="2">
  <advance width="1322"/>
  <unicode hex="20A6"/>
  <outline>
    <contour>
      <point x="176" y="0" type="line"/>
      <point x="368" y="0" type="line"/>
      <point x="368" y="497" type="line"/>
      <point x="359" y="1084" type="line"/>
      <point x="374" y="1084" type="line"/>
      <point x="576" y="658" type="line"/>
      <point x="755" y="657" type="line"/>
      <point x="468" y="1278" type="line"/>
      <point x="176" y="1278" type="line"/>
    </contour>
    <contour>
      <point x="24" y="585" type="line"/>
      <point x="1286" y="585" type="line"/>
      <point x="1298" y="729" type="line"/>
      <point x="36" y="729" type="line"/>
    </contour>
    <contour>
      <point x="860" y="0" type="line"/>
      <point x="1146" y="0" type="line"/>
      <point x="1146" y="1278" type="line"/>
      <point x="955" y="1278" type="line"/>
      <point x="955" y="770" type="line"/>
      <point x="963" y="204" type="line"/>
      <point x="948" y="204" type="line"/>
      <point x="745" y="649" type="line"/>
      <point x="565" y="649" type="line"/>
    </contour>
  </outline>
</glyph>
<glyph name="won" format="2">
  <advance width="1691"/>
  <unicode hex="20A9"/>
  <outline>
    <contour>
      <point x="335" y="0" type="line"/>
      <point x="648" y="0" type="line"/>
      <point x="763" y="648" type="line"/>
      <point x="591" y="648" type="line"/>
      <point x="545" y="391" type="line"/>
      <point x="505" y="168" type="line"/>
      <point x="489" y="168" type="line"/>
      <point x="447" y="391" type="line"/>
      <point x="286" y="1278" type="line"/>
      <point x="81" y="1278" type="line"/>
    </contour>
    <contour>
      <point x="1053" y="0" type="line"/>
      <point x="1365" y="0" type="line"/>
      <point x="1618" y="1278" type="line"/>
      <point x="1414" y="1278" type="line"/>
      <point x="1253" y="391" type="line"/>
      <point x="1211" y="168" type="line"/>
      <point x="1194" y="168" type="line"/>
      <point x="1154" y="391" type="line"/>
      <point x="1108" y="648" type="line"/>
      <point x="937" y="648" type="line"/>
    </contour>
    <contour>
      <point x="58" y="585" type="line"/>
      <point x="1621" y="585" type="line"/>
      <point x="1633" y="729" type="line"/>
      <point x="70" y="730" type="line"/>
    </contour>
    <contour>
      <point x="706" y="1246" type="line"/>
      <point x="591" y="656" type="line"/>
      <point x="760" y="656" type="line"/>
      <point x="768" y="697" type="line"/>
      <point x="842" y="1094" type="line"/>
      <point x="858" y="1094" type="line"/>
      <point x="931" y="697" type="line"/>
      <point x="939" y="656" type="line"/>
      <point x="1107" y="656" type="line"/>
      <point x="994" y="1246" type="line"/>
    </contour>
  </outline>
</glyph>
<glyph name="uni20AA" format="2">
  <advance width="1567"/>
  <unicode hex="20AA"/>
  <outline>
    <contour>
      <point x="512" y="0" type="line"/>
      <point x="1045" y="0" type="line" smooth="yes"/>
      <point x="1307" y="0"/>
      <point x="1425" y="128"/>
      <point x="1425" y="362" type="curve" smooth="yes"/>
      <point x="1425" y="1110" type="line"/>
      <point x="1229" y="1110" type="line"/>
      <point x="1229" y="363" type="line" smooth="yes"/>
      <point x="1229" y="225"/>
      <point x="1166" y="158"/>
      <point x="1033" y="158" type="curve" smooth="yes"/>
      <point x="708" y="158" type="line"/>
      <point x="708" y="804" type="line"/>
      <point x="512" y="804" type="line"/>
    </contour>
    <contour>
      <point x="142" y="1110" type="line"/>
      <point x="142" y="0" type="line"/>
      <point x="338" y="0" type="line"/>
      <point x="338" y="952" type="line"/>
      <point x="676" y="952" type="line" smooth="yes"/>
      <point x="809" y="952"/>
      <point x="872" y="885"/>
      <point x="872" y="747" type="curve" smooth="yes"/>
      <point x="872" y="306" type="line"/>
      <point x="1068" y="306" type="line"/>
      <point x="1068" y="748" type="line" smooth="yes"/>
      <point x="1068" y="982"/>
      <point x="950" y="1110"/>
      <point x="688" y="1110" type="curve" smooth="yes"/>
    </contour>
  </outline>
</glyph>
<glyph name="dong" format="2">
  <advance width="1104"/>
  <unicode hex="20AB"/>
  <anchor x="535.077" y="-289" name="bottom"/>
  <anchor x="535" y="490" name="center"/>
  <anchor x="535" y="1324" name="top"/>
  <anchor x="1103" y="1324" name="topright"/>
  <outline>
    <contour>
      <point x="102" y="-302" type="line"/>
      <point x="968" y="-302" type="line"/>
      <point x="968" y="-169" type="line"/>
      <point x="102" y="-169" type="line"/>
    </contour>
    <component base="dcroat"/>
  </outline>
</glyph>
<glyph name="kip" format="2">
  <advance width="1177"/>
  <unicode hex="20AD"/>
  <anchor x="614" y="0" name="bottom"/>
  <anchor x="614" y="1278" name="top"/>
  <outline>
    <contour>
      <point x="547" y="729" type="line"/>
      <point x="537" y="585" type="line"/>
      <point x="1048" y="585" type="line"/>
      <point x="1060" y="729" type="line"/>
    </contour>
    <contour>
      <point x="300" y="585" type="line"/>
      <point x="310" y="729" type="line"/>
      <point x="29" y="730" type="line"/>
      <point x="17" y="585" type="line"/>
    </contour>
    <component base="K" xOffset="28"/>
  </outline>
</glyph>
<glyph name="uni20AE" format="2">
  <advance width="1076"/>
  <unicode hex="20AE"/>
  <anchor x="538" y="0" name="bottom"/>
  <anchor x="538" y="639" name="center"/>
  <anchor x="538" y="1278" name="top"/>
  <outline>
    <contour>
      <point x="879" y="941" type="line"/>
      <point x="192" y="667" type="line"/>
      <point x="192" y="522" type="line"/>
      <point x="879" y="796" type="line"/>
    </contour>
    <contour>
      <point x="879" y="641" type="line"/>
      <point x="192" y="367" type="line"/>
      <point x="192" y="222" type="line"/>
      <point x="879" y="496" type="line"/>
    </contour>
    <component base="T"/>
  </outline>
</glyph>
<glyph name="peso" format="2">
  <advance width="1253"/>
  <unicode hex="20B1"/>
  <outline>
    <contour>
      <point x="309" y="380" type="line"/>
      <point x="667" y="380" type="line" smooth="yes"/>
      <point x="960" y="380"/>
      <point x="1091" y="523"/>
      <point x="1091" y="766" type="curve" smooth="yes"/>
      <point x="1091" y="893" type="line" smooth="yes"/>
      <point x="1091" y="1135"/>
      <point x="961" y="1278"/>
      <point x="668" y="1278" type="curve" smooth="yes"/>
      <point x="308" y="1278" type="line"/>
      <point x="308" y="1113" type="line"/>
      <point x="664" y="1113" type="line" smooth="yes"/>
      <point x="822" y="1113"/>
      <point x="891" y="1033"/>
      <point x="891" y="888" type="curve" smooth="yes"/>
      <point x="891" y="771" type="line" smooth="yes"/>
      <point x="891" y="629"/>
      <point x="822" y="546"/>
      <point x="662" y="546" type="curve" smooth="yes"/>
      <point x="309" y="546" type="line"/>
    </contour>
    <contour>
      <point x="25" y="614" type="line"/>
      <point x="290" y="614" type="line"/>
      <point x="293" y="759" type="line"/>
      <point x="37" y="759" type="line"/>
    </contour>
    <contour>
      <point x="177" y="0" type="line"/>
      <point x="375" y="0" type="line"/>
      <point x="375" y="427" type="line"/>
      <point x="374" y="517" type="line"/>
      <point x="374" y="1278" type="line"/>
      <point x="177" y="1278" type="line"/>
    </contour>
    <contour>
      <point x="25" y="886" type="line"/>
      <point x="290" y="886" type="line"/>
      <point x="293" y="1031" type="line"/>
      <point x="37" y="1031" type="line"/>
    </contour>
    <contour>
      <point x="943" y="614" type="line"/>
      <point x="1221" y="614" type="line"/>
      <point x="1233" y="759" type="line"/>
      <point x="945" y="759" type="line"/>
    </contour>
    <contour>
      <point x="943" y="886" type="line"/>
      <point x="1221" y="886" type="line"/>
      <point x="1233" y="1031" type="line"/>
      <point x="945" y="1031" type="line"/>
    </contour>
  </outline>
</glyph>
<glyph name="guarani" format="2">
  <advance width="1196"/>
  <unicode hex="20B2"/>
  <outline>
    <contour>
      <point x="702" y="1191" type="line"/>
      <point x="702" y="1486" type="line"/>
      <point x="526" y="1486" type="line"/>
      <point x="526" y="1191" type="line"/>
    </contour>
    <contour>
      <point x="702" y="-215" type="line"/>
      <point x="702" y="114" type="line"/>
      <point x="526" y="114" type="line"/>
      <point x="526" y="-215" type="line"/>
    </contour>
    <contour>
      <point x="608" y="-26" type="curve" smooth="yes"/>
      <point x="839" y="-26"/>
      <point x="984" y="52"/>
      <point x="1071" y="137" type="curve"/>
      <point x="1071" y="724" type="line"/>
      <point x="622" y="724" type="line"/>
      <point x="622" y="558" type="line"/>
      <point x="928" y="558" type="line"/>
      <point x="877" y="637" type="line"/>
      <point x="877" y="216" type="line"/>
      <point x="826" y="177"/>
      <point x="756" y="146"/>
      <point x="621" y="146" type="curve" smooth="yes"/>
      <point x="409" y="146"/>
      <point x="302" y="267"/>
      <point x="302" y="482" type="curve" smooth="yes"/>
      <point x="302" y="765" type="line" smooth="yes"/>
      <point x="302" y="1003"/>
      <point x="419" y="1131"/>
      <point x="664" y="1131" type="curve" smooth="yes"/>
      <point x="825" y="1131"/>
      <point x="949" y="1082"/>
      <point x="1043" y="1027" type="curve"/>
      <point x="1025" y="1206" type="line"/>
      <point x="940" y="1255"/>
      <point x="807" y="1303"/>
      <point x="628" y="1303" type="curve" smooth="yes"/>
      <point x="280" y="1303"/>
      <point x="98" y="1112"/>
      <point x="98" y="769" type="curve" smooth="yes"/>
      <point x="98" y="481" type="line" smooth="yes"/>
      <point x="98" y="158"/>
      <point x="256" y="-26"/>
    </contour>
  </outline>
</glyph>
<glyph name="cedi" format="2">
  <advance width="1021"/>
  <unicode hex="20B5"/>
  <anchor x="563" y="0" name="bottom"/>
  <anchor x="563" y="1278" name="top"/>
  <outline>
    <contour>
      <point x="496" y="-214" type="line"/>
      <point x="670" y="-214" type="line"/>
      <point x="670" y="24" type="line"/>
      <point x="496" y="24" type="line"/>
    </contour>
    <contour>
      <point x="496" y="1194" type="line"/>
      <point x="670" y="1194" type="line"/>
      <point x="670" y="1487" type="line"/>
      <point x="496" y="1487" type="line"/>
    </contour>
    <component base="C"/>
  </outline>
</glyph>
<glyph name="liraTurkish" format="2">
  <advance width="1140"/>
  <unicode hex="20BA"/>
  <outline>
    <contour>
      <point x="165" y="0" type="line"/>
      <point x="387" y="0" type="line" smooth="yes"/>
      <point x="845" y="0"/>
      <point x="1050" y="187"/>
      <point x="1050" y="526" type="curve" smooth="yes"/>
      <point x="1050" y="632" type="line"/>
      <point x="851" y="632" type="line"/>
      <point x="851" y="527" type="line" smooth="yes"/>
      <point x="851" y="287"/>
      <point x="712" y="172"/>
      <point x="425" y="172" type="curve" smooth="yes"/>
      <point x="366" y="172" type="line"/>
      <point x="366" y="1278" type="line"/>
      <point x="165" y="1278" type="line"/>
    </contour>
    <contour>
      <point x="707" y="1154" type="line"/>
      <point x="20" y="880" type="line"/>
      <point x="20" y="735" type="line"/>
      <point x="707" y="1009" type="line"/>
    </contour>
    <contour>
      <point x="707" y="854" type="line"/>
      <point x="20" y="580" type="line"/>
      <point x="20" y="435" type="line"/>
      <point x="707" y="709" type="line"/>
    </contour>
  </outline>
</glyph>
<glyph name="manat" format="2">
  <advance width="1474"/>
  <unicode hex="20BC"/>
  <outline>
    <contour>
      <point x="737" y="1304" type="curve" smooth="yes"/>
      <point x="339" y="1304"/>
      <point x="132" y="1111"/>
      <point x="132" y="743" type="curve" smooth="yes"/>
      <point x="132" y="0" type="line"/>
      <point x="333" y="0" type="line"/>
      <point x="333" y="750" type="line" smooth="yes"/>
      <point x="333" y="1001"/>
      <point x="467" y="1135"/>
      <point x="737" y="1135" type="curve" smooth="yes"/>
      <point x="1007" y="1135"/>
      <point x="1141" y="1001"/>
      <point x="1141" y="750" type="curve" smooth="yes"/>
      <point x="1141" y="0" type="line"/>
      <point x="1342" y="0" type="line"/>
      <point x="1342" y="743" type="line" smooth="yes"/>
      <point x="1342" y="1111"/>
      <point x="1135" y="1304"/>
    </contour>
    <contour>
      <point x="825" y="0" type="line"/>
      <point x="825" y="1487" type="line"/>
      <point x="649" y="1487" type="line"/>
      <point x="649" y="0" type="line"/>
    </contour>
  </outline>
</glyph>
<glyph name="ruble" format="2">
  <advance width="1169"/>
  <unicode hex="20BD"/>
  <outline>
    <contour>
      <point x="309" y="470" type="line"/>
      <point x="667" y="470" type="line" smooth="yes"/>
      <point x="960" y="470"/>
      <point x="1091" y="611"/>
      <point x="1091" y="851" type="curve" smooth="yes"/>
      <point x="1091" y="898" type="line" smooth="yes"/>
      <point x="1091" y="1137"/>
      <point x="961" y="1278"/>
      <point x="668" y="1278" type="curve" smooth="yes"/>
      <point x="308" y="1278" type="line"/>
      <point x="308" y="1113" type="line"/>
      <point x="664" y="1113" type="line" smooth="yes"/>
      <point x="822" y="1113"/>
      <point x="891" y="1035"/>
      <point x="891" y="893" type="curve" smooth="yes"/>
      <point x="891" y="856" type="line" smooth="yes"/>
      <point x="891" y="717"/>
      <point x="822" y="636"/>
      <point x="662" y="636" type="curve" smooth="yes"/>
      <point x="309" y="636" type="line"/>
    </contour>
    <contour>
      <point x="25" y="179" type="line"/>
      <point x="792" y="179" type="line"/>
      <point x="803" y="318" type="line"/>
      <point x="37" y="318" type="line"/>
    </contour>
    <contour>
      <point x="25" y="474" type="line"/>
      <point x="319" y="474" type="line"/>
      <point x="319" y="613" type="line"/>
      <point x="36" y="613" type="line"/>
    </contour>
    <contour>
      <point x="177" y="0" type="line"/>
      <point x="375" y="0" type="line"/>
      <point x="375" y="517" type="line"/>
      <point x="374" y="607" type="line"/>
      <point x="374" y="1278" type="line"/>
      <point x="177" y="1278" type="line"/>
    </contour>
  </outline>
</glyph>
<glyph name="literSign" format="2">
  <advance width="878"/>
  <unicode hex="2113"/>
  <outline>
    <contour>
      <point x="272" y="479" type="curve"/>
      <point x="280" y="310" type="line"/>
      <point x="624" y="476"/>
      <point x="801" y="618"/>
      <point x="801" y="924" type="curve" smooth="yes"/>
      <point x="801" y="994" type="line" smooth="yes"/>
      <point x="801" y="1216"/>
      <point x="687" y="1339"/>
      <point x="479" y="1339" type="curve" smooth="yes"/>
      <point x="268" y="1339"/>
      <point x="155" y="1221"/>
      <point x="155" y="989" type="curve" smooth="yes"/>
      <point x="155" y="388" type="line"/>
      <point x="342" y="388" type="line"/>
      <point x="342" y="1003" type="line" smooth="yes"/>
      <point x="342" y="1113"/>
      <point x="385" y="1182"/>
      <point x="479" y="1182" type="curve" smooth="yes"/>
      <point x="577" y="1182"/>
      <point x="620" y="1113"/>
      <point x="620" y="1003" type="curve" smooth="yes"/>
      <point x="620" y="926" type="line" smooth="yes"/>
      <point x="620" y="712"/>
      <point x="514" y="604"/>
    </contour>
    <contour>
      <point x="261" y="309" type="curve"/>
      <point x="261" y="481" type="line"/>
      <point x="192" y="444"/>
      <point x="114" y="408"/>
      <point x="32" y="370" type="curve"/>
      <point x="32" y="194" type="line"/>
      <point x="111" y="233"/>
      <point x="188" y="270"/>
    </contour>
    <contour>
      <point x="529" y="-20" type="curve" smooth="yes"/>
      <point x="623" y="-20"/>
      <point x="711" y="5"/>
      <point x="773" y="38" type="curve"/>
      <point x="789" y="205" type="line"/>
      <point x="723" y="170"/>
      <point x="638" y="143"/>
      <point x="552" y="143" type="curve" smooth="yes"/>
      <point x="395" y="143"/>
      <point x="342" y="215"/>
      <point x="342" y="377" type="curve" smooth="yes"/>
      <point x="342" y="397" type="line"/>
      <point x="156" y="395" type="line"/>
      <point x="156" y="353" type="line" smooth="yes"/>
      <point x="156" y="108"/>
      <point x="267" y="-20"/>
    </contour>
  </outline>
</glyph>
<glyph name="numero" format="2">
  <advance width="1949"/>
  <unicode hex="2116"/>
  <anchor x="630" y="0" name="bottom"/>
  <anchor x="630" y="1278" name="top"/>
  <outline>
    <contour>
      <point x="1295" y="373" type="line"/>
      <point x="1853" y="373" type="line"/>
      <point x="1853" y="501" type="line"/>
      <point x="1295" y="501" type="line"/>
    </contour>
    <contour>
      <point x="1574" y="629" type="curve" smooth="yes"/>
      <point x="1761" y="629"/>
      <point x="1859" y="732"/>
      <point x="1859" y="925" type="curve" smooth="yes"/>
      <point x="1859" y="998" type="line" smooth="yes"/>
      <point x="1859" y="1190"/>
      <point x="1762" y="1293"/>
      <point x="1574" y="1293" type="curve" smooth="yes"/>
      <point x="1387" y="1293"/>
      <point x="1289" y="1190"/>
      <point x="1289" y="998" type="curve" smooth="yes"/>
      <point x="1289" y="925" type="line" smooth="yes"/>
      <point x="1289" y="732"/>
      <point x="1387" y="629"/>
    </contour>
    <contour>
      <point x="1574" y="758" type="curve" smooth="yes"/>
      <point x="1486" y="758"/>
      <point x="1445" y="816"/>
      <point x="1445" y="916" type="curve" smooth="yes"/>
      <point x="1445" y="1008" type="line" smooth="yes"/>
      <point x="1445" y="1107"/>
      <point x="1486" y="1164"/>
      <point x="1574" y="1164" type="curve" smooth="yes"/>
      <point x="1662" y="1164"/>
      <point x="1703" y="1107"/>
      <point x="1703" y="1008" type="curve" smooth="yes"/>
      <point x="1703" y="916" type="line" smooth="yes"/>
      <point x="1703" y="815"/>
      <point x="1661" y="758"/>
    </contour>
    <component base="N"/>
  </outline>
</glyph>
<glyph name="trademark" format="2">
  <advance width="1326"/>
  <unicode hex="2122"/>
  <outline>
    <contour>
      <point x="194" y="639" type="line"/>
      <point x="334" y="639" type="line"/>
      <point x="334" y="1245" type="line"/>
      <point x="194" y="1245" type="line"/>
    </contour>
    <contour>
      <point x="24" y="1163" type="line"/>
      <point x="505" y="1163" type="line"/>
      <point x="505" y="1278" type="line"/>
      <point x="24" y="1278" type="line"/>
    </contour>
    <contour>
      <point x="587" y="639" type="line"/>
      <point x="720" y="639" type="line"/>
      <point x="726" y="873" type="line"/>
      <point x="729" y="1126" type="line"/>
      <point x="738" y="1126" type="line"/>
      <point x="845" y="723" type="line"/>
      <point x="986" y="723" type="line"/>
      <point x="1093" y="1126" type="line"/>
      <point x="1101" y="1126" type="line"/>
      <point x="1105" y="873" type="line"/>
      <point x="1110" y="639" type="line"/>
      <point x="1244" y="639" type="line"/>
      <point x="1224" y="1278" type="line"/>
      <point x="1025" y="1278" type="line"/>
      <point x="919" y="875" type="line"/>
      <point x="911" y="875" type="line"/>
      <point x="807" y="1278" type="line"/>
      <point x="606" y="1278" type="line"/>
    </contour>
  </outline>
</glyph>
<glyph name="Ohm" format="2">
  <advance width="1232"/>
  <unicode hex="2126"/>
  <outline>
    <contour>
      <point x="616" y="1304" type="curve" smooth="yes"/>
      <point x="283" y="1304"/>
      <point x="107" y="1117"/>
      <point x="107" y="785" type="curve" smooth="yes"/>
      <point x="107" y="556" type="line" smooth="yes"/>
      <point x="107" y="342"/>
      <point x="204" y="207"/>
      <point x="386" y="170" type="curve"/>
      <point x="386" y="161" type="line"/>
      <point x="62" y="162" type="line"/>
      <point x="62" y="1" type="line"/>
      <point x="537" y="1" type="line"/>
      <point x="537" y="166" type="line"/>
      <point x="397" y="217"/>
      <point x="311" y="328"/>
      <point x="311" y="518" type="curve" smooth="yes"/>
      <point x="311" y="790" type="line" smooth="yes"/>
      <point x="311" y="1012"/>
      <point x="417" y="1137"/>
      <point x="616" y="1137" type="curve" smooth="yes"/>
      <point x="816" y="1137"/>
      <point x="921" y="1012"/>
      <point x="921" y="790" type="curve" smooth="yes"/>
      <point x="921" y="518" type="line" smooth="yes"/>
      <point x="921" y="328"/>
      <point x="836" y="217"/>
      <point x="696" y="166" type="curve"/>
      <point x="696" y="1" type="line"/>
      <point x="1170" y="1" type="line"/>
      <point x="1170" y="162" type="line"/>
      <point x="846" y="161" type="line"/>
      <point x="846" y="170" type="line"/>
      <point x="1028" y="207"/>
      <point x="1125" y="342"/>
      <point x="1125" y="556" type="curve" smooth="yes"/>
      <point x="1125" y="785" type="line" smooth="yes"/>
      <point x="1125" y="1117"/>
      <point x="949" y="1304"/>
    </contour>
  </outline>
</glyph>
<glyph name="estimated" format="2">
  <advance width="1571"/>
  <unicode hex="212E"/>
  <outline>
    <contour>
      <point x="360" y="581" type="curve"/>
      <point x="1473" y="581" type="line"/>
      <point x="1473" y="606" type="line" smooth="yes"/>
      <point x="1473" y="979"/>
      <point x="1197" y="1227"/>
      <point x="784" y="1227" type="curve" smooth="yes"/>
      <point x="372" y="1227"/>
      <point x="98" y="979"/>
      <point x="98" y="606" type="curve" smooth="yes"/>
      <point x="98" y="226"/>
      <point x="372" y="-10"/>
      <point x="784" y="-10" type="curve" smooth="yes"/>
      <point x="998" y="-10"/>
      <point x="1207" y="86"/>
      <point x="1331" y="230" type="curve"/>
      <point x="1230" y="230" type="line"/>
      <point x="1121" y="116"/>
      <point x="967" y="46"/>
      <point x="787" y="46" type="curve" smooth="yes"/>
      <point x="609" y="46"/>
      <point x="471" y="97"/>
      <point x="368" y="204" type="curve" smooth="yes"/>
      <point x="355" y="218"/>
      <point x="349" y="231"/>
      <point x="349" y="244" type="curve" smooth="yes"/>
      <point x="349" y="574" type="line" smooth="yes"/>
      <point x="349" y="579"/>
      <point x="353" y="581"/>
    </contour>
    <contour>
      <point x="1223" y="983" type="curve"/>
      <point x="1223" y="647" type="line" smooth="yes"/>
      <point x="1223" y="640"/>
      <point x="1220" y="637"/>
      <point x="1213" y="637" type="curve" smooth="yes"/>
      <point x="360" y="637" type="line" smooth="yes"/>
      <point x="353" y="637"/>
      <point x="349" y="640"/>
      <point x="349" y="647" type="curve" smooth="yes"/>
      <point x="349" y="976" type="line" smooth="yes"/>
      <point x="349" y="990"/>
      <point x="356" y="1007"/>
      <point x="368" y="1020" type="curve" smooth="yes"/>
      <point x="450" y="1104"/>
      <point x="619" y="1178"/>
      <point x="787" y="1178" type="curve" smooth="yes"/>
      <point x="952" y="1178"/>
      <point x="1107" y="1129"/>
      <point x="1203" y="1025" type="curve" smooth="yes"/>
      <point x="1216" y="1011"/>
      <point x="1223" y="998"/>
    </contour>
  </outline>
</glyph>
<glyph name="partialdiff" format="2">
  <advance width="1095"/>
  <unicode hex="2202"/>
  <outline>
    <contour>
      <point x="306" y="1270" type="curve"/>
      <point x="274" y="1096" type="line"/>
      <point x="334" y="1117"/>
      <point x="398" y="1130"/>
      <point x="493" y="1130" type="curve" smooth="yes"/>
      <point x="696" y="1130"/>
      <point x="797" y="1022"/>
      <point x="798" y="809" type="curve" smooth="yes"/>
      <point x="798" y="794"/>
      <point x="795" y="749"/>
      <point x="780" y="491" type="curve" smooth="yes"/>
      <point x="767" y="268"/>
      <point x="691" y="141"/>
      <point x="497" y="141" type="curve" smooth="yes"/>
      <point x="353" y="141"/>
      <point x="278" y="215"/>
      <point x="278" y="343" type="curve" smooth="yes"/>
      <point x="278" y="354"/>
      <point x="278" y="381"/>
      <point x="283" y="450" type="curve" smooth="yes"/>
      <point x="293" y="587"/>
      <point x="355" y="664"/>
      <point x="520" y="664" type="curve" smooth="yes"/>
      <point x="659" y="664"/>
      <point x="760" y="573"/>
      <point x="779" y="429" type="curve"/>
      <point x="809" y="593" type="line"/>
      <point x="776" y="594" type="line"/>
      <point x="744" y="725"/>
      <point x="652" y="824"/>
      <point x="452" y="824" type="curve" smooth="yes"/>
      <point x="225" y="824"/>
      <point x="100" y="691"/>
      <point x="86" y="450" type="curve" smooth="yes"/>
      <point x="83" y="398"/>
      <point x="81" y="359"/>
      <point x="81" y="344" type="curve" smooth="yes"/>
      <point x="81" y="102"/>
      <point x="222" y="-26"/>
      <point x="489" y="-26" type="curve" smooth="yes"/>
      <point x="804" y="-26"/>
      <point x="951" y="166"/>
      <point x="974" y="480" type="curve" smooth="yes"/>
      <point x="993" y="736"/>
      <point x="996" y="806"/>
      <point x="996" y="819" type="curve" smooth="yes"/>
      <point x="996" y="1133"/>
      <point x="835" y="1300"/>
      <point x="536" y="1300" type="curve" smooth="yes"/>
      <point x="450" y="1300"/>
      <point x="369" y="1289"/>
    </contour>
  </outline>
</glyph>
<glyph name="emptyset" format="2">
  <advance width="1403"/>
  <unicode hex="2205"/>
  <outline>
    <contour>
      <point x="167" y="-99" type="line"/>
      <point x="352" y="-99" type="line"/>
      <point x="1235" y="1180" type="line"/>
      <point x="1050" y="1180" type="line"/>
    </contour>
    <contour>
      <point x="701" y="-27" type="curve"/>
      <point x="1064" y="-27"/>
      <point x="1305" y="198"/>
      <point x="1305" y="534" type="curve" smooth="yes"/>
      <point x="1305" y="559" type="line" smooth="yes"/>
      <point x="1305" y="889"/>
      <point x="1064" y="1108"/>
      <point x="701" y="1108" type="curve"/>
      <point x="339" y="1108"/>
      <point x="98" y="889"/>
      <point x="98" y="559" type="curve" smooth="yes"/>
      <point x="98" y="534" type="line" smooth="yes"/>
      <point x="98" y="198"/>
      <point x="339" y="-27"/>
    </contour>
    <contour>
      <point x="701" y="141" type="curve"/>
      <point x="460" y="141"/>
      <point x="299" y="298"/>
      <point x="299" y="534" type="curve"/>
      <point x="299" y="559" type="line"/>
      <point x="299" y="789"/>
      <point x="460" y="942"/>
      <point x="701" y="942" type="curve"/>
      <point x="943" y="942"/>
      <point x="1104" y="789"/>
      <point x="1104" y="559" type="curve"/>
      <point x="1104" y="534" type="line"/>
      <point x="1104" y="298"/>
      <point x="943" y="141"/>
    </contour>
  </outline>
</glyph>
<glyph name="increment" format="2">
  <advance width="1201"/>
  <unicode hex="2206"/>
  <outline>
    <contour>
      <point x="975" y="73" type="line"/>
      <point x="1139" y="164" type="line"/>
      <point x="713" y="1278" type="line"/>
      <point x="538" y="1278" type="line"/>
    </contour>
    <contour>
      <point x="62" y="164" type="line"/>
      <point x="62" y="0" type="line"/>
      <point x="698" y="0" type="line"/>
      <point x="698" y="169" type="line"/>
      <point x="200" y="169" type="line"/>
    </contour>
    <contour>
      <point x="226" y="73" type="line"/>
      <point x="664" y="1278" type="line"/>
      <point x="489" y="1278" type="line"/>
      <point x="62" y="164" type="line"/>
    </contour>
    <contour>
      <point x="1139" y="164" type="line"/>
      <point x="1001" y="169" type="line"/>
      <point x="500" y="169" type="line"/>
      <point x="500" y="0" type="line"/>
      <point x="1139" y="0" type="line"/>
    </contour>
  </outline>
</glyph>
<glyph name="product" format="2">
  <advance width="1113"/>
  <unicode hex="220F"/>
  <outline>
    <contour>
      <point x="971" y="-185" type="line"/>
      <point x="971" y="1278" type="line"/>
      <point x="142" y="1278" type="line"/>
      <point x="142" y="-185" type="line"/>
      <point x="343" y="-185" type="line"/>
      <point x="343" y="1186" type="line"/>
      <point x="263" y="1111" type="line"/>
      <point x="846" y="1111" type="line"/>
      <point x="770" y="1184" type="line"/>
      <point x="770" y="-185" type="line"/>
    </contour>
  </outline>
</glyph>
<glyph name="summation" format="2">
  <advance width="940"/>
  <unicode hex="2211"/>
  <outline>
    <contour>
      <point x="62" y="1120" type="line"/>
      <point x="182" y="1111" type="line"/>
      <point x="862" y="1111" type="line"/>
      <point x="862" y="1278" type="line"/>
      <point x="62" y="1278" type="line"/>
    </contour>
    <contour>
      <point x="62" y="-185" type="line"/>
      <point x="862" y="-185" type="line"/>
      <point x="862" y="-18" type="line"/>
      <point x="175" y="-18" type="line"/>
      <point x="62" y="-26" type="line"/>
    </contour>
    <contour>
      <point x="471" y="558" type="line"/>
      <point x="471" y="543" type="line"/>
      <point x="62" y="-26" type="line"/>
      <point x="207" y="-127" type="line"/>
      <point x="672" y="488" type="line"/>
      <point x="672" y="611" type="line"/>
      <point x="207" y="1221" type="line"/>
      <point x="62" y="1120" type="line"/>
    </contour>
  </outline>
</glyph>
<glyph name="radical" format="2">
  <advance width="1088"/>
  <unicode hex="221A"/>
  <outline>
    <contour>
      <point x="362" y="-242" type="line"/>
      <point x="543" y="-242" type="line"/>
      <point x="1116" y="1343" type="line"/>
      <point x="933" y="1343" type="line"/>
    </contour>
    <contour>
      <point x="262" y="-242" type="line"/>
      <point x="533" y="-242" type="line"/>
      <point x="432" y="-120" type="line"/>
      <point x="388" y="-120" type="line"/>
      <point x="239" y="337" type="line"/>
      <point x="64" y="337" type="line"/>
    </contour>
  </outline>
</glyph>
<glyph name="infinity" format="2">
  <advance width="1554"/>
  <unicode hex="221E"/>
  <outline>
    <contour>
      <point x="86" y="419" type="line"/>
      <point x="86" y="181"/>
      <point x="215" y="62"/>
      <point x="422" y="62" type="curve" smooth="yes"/>
      <point x="607" y="62"/>
      <point x="717" y="161"/>
      <point x="794" y="359" type="curve"/>
      <point x="802" y="359" type="line"/>
      <point x="804" y="610" type="line"/>
      <point x="794" y="611" type="line"/>
      <point x="711" y="806"/>
      <point x="607" y="909"/>
      <point x="420" y="909" type="curve" smooth="yes"/>
      <point x="216" y="909"/>
      <point x="87" y="790"/>
      <point x="86" y="553" type="curve"/>
    </contour>
    <contour>
      <point x="268" y="420" type="curve"/>
      <point x="268" y="552" type="line"/>
      <point x="268" y="682"/>
      <point x="326" y="753"/>
      <point x="435" y="753" type="curve" smooth="yes"/>
      <point x="557" y="753"/>
      <point x="635" y="653"/>
      <point x="694" y="485" type="curve"/>
      <point x="633" y="317"/>
      <point x="560" y="217"/>
      <point x="437" y="217" type="curve" smooth="yes"/>
      <point x="326" y="217"/>
      <point x="268" y="289"/>
    </contour>
    <contour>
      <point x="1468" y="419" type="curve"/>
      <point x="1468" y="553" type="line"/>
      <point x="1468" y="790"/>
      <point x="1338" y="909"/>
      <point x="1133" y="909" type="curve" smooth="yes"/>
      <point x="946" y="909"/>
      <point x="842" y="809"/>
      <point x="758" y="605" type="curve"/>
      <point x="750" y="605" type="line"/>
      <point x="748" y="365" type="line"/>
      <point x="756" y="365" type="line"/>
      <point x="839" y="163"/>
      <point x="945" y="62"/>
      <point x="1131" y="62" type="curve" smooth="yes"/>
      <point x="1339" y="62"/>
      <point x="1468" y="181"/>
    </contour>
    <contour>
      <point x="1287" y="420" type="line"/>
      <point x="1287" y="289"/>
      <point x="1228" y="217"/>
      <point x="1117" y="217" type="curve" smooth="yes"/>
      <point x="994" y="217"/>
      <point x="921" y="317"/>
      <point x="861" y="485" type="curve"/>
      <point x="920" y="653"/>
      <point x="997" y="753"/>
      <point x="1119" y="753" type="curve" smooth="yes"/>
      <point x="1228" y="753"/>
      <point x="1286" y="682"/>
      <point x="1287" y="552" type="curve"/>
    </contour>
  </outline>
</glyph>
<glyph name="integral" format="2">
  <advance width="596"/>
  <unicode hex="222B"/>
  <outline>
    <contour>
      <point x="-130" y="-190" type="curve"/>
      <point x="-121" y="-337" type="line"/>
      <point x="-84" y="-346"/>
      <point x="-43" y="-352"/>
      <point x="1" y="-352" type="curve" smooth="yes"/>
      <point x="237" y="-352"/>
      <point x="333" y="-257"/>
      <point x="353" y="6" type="curve" smooth="yes"/>
      <point x="427" y="988" type="line" smooth="yes"/>
      <point x="439" y="1146"/>
      <point x="492" y="1195"/>
      <point x="629" y="1195" type="curve" smooth="yes"/>
      <point x="666" y="1195"/>
      <point x="695" y="1192"/>
      <point x="724" y="1186" type="curve"/>
      <point x="715" y="1332" type="line"/>
      <point x="678" y="1340"/>
      <point x="636" y="1346"/>
      <point x="593" y="1346" type="curve" smooth="yes"/>
      <point x="358" y="1346"/>
      <point x="261" y="1251"/>
      <point x="241" y="988" type="curve" smooth="yes"/>
      <point x="168" y="7" type="line" smooth="yes"/>
      <point x="156" y="-152"/>
      <point x="103" y="-200"/>
      <point x="-39" y="-200" type="curve" smooth="yes"/>
      <point x="-73" y="-200"/>
      <point x="-101" y="-197"/>
    </contour>
  </outline>
</glyph>
<glyph name="notequal" format="2">
  <advance width="1031"/>
  <unicode hex="2260"/>
  <outline>
    <contour>
      <point x="234" y="107" type="line"/>
      <point x="399" y="107" type="line"/>
      <point x="777" y="1138" type="line"/>
      <point x="613" y="1138" type="line"/>
    </contour>
    <component base="equal" yOffset="1"/>
  </outline>
</glyph>
<glyph name="lessequal" format="2">
  <advance width="1031"/>
  <unicode hex="2264"/>
  <outline>
    <contour>
      <point x="918" y="417" type="line"/>
      <point x="918" y="586" type="line"/>
      <point x="253" y="737" type="line"/>
      <point x="253" y="755" type="line"/>
      <point x="918" y="906" type="line"/>
      <point x="918" y="1075" type="line"/>
      <point x="113" y="876" type="line"/>
      <point x="113" y="616" type="line"/>
    </contour>
    <contour>
      <point x="113" y="130" type="line"/>
      <point x="918" y="130" type="line"/>
      <point x="918" y="286" type="line"/>
      <point x="113" y="286" type="line"/>
    </contour>
  </outline>
</glyph>
<glyph name="greaterequal" format="2">
  <advance width="1031"/>
  <unicode hex="2265"/>
  <outline>
    <contour>
      <point x="113" y="417" type="line"/>
      <point x="918" y="616" type="line"/>
      <point x="918" y="876" type="line"/>
      <point x="113" y="1075" type="line"/>
      <point x="113" y="906" type="line"/>
      <point x="778" y="755" type="line"/>
      <point x="778" y="737" type="line"/>
      <point x="113" y="586" type="line"/>
    </contour>
    <contour>
      <point x="918" y="130" type="line"/>
      <point x="918" y="286" type="line"/>
      <point x="113" y="286" type="line"/>
      <point x="113" y="130" type="line"/>
    </contour>
  </outline>
</glyph>
<glyph name="lozenge" format="2">
  <advance width="1045"/>
  <unicode hex="25CA"/>
  <outline>
    <contour>
      <point x="192" y="575" type="line"/>
      <point x="613" y="1278" type="line"/>
      <point x="408" y="1278" type="line"/>
      <point x="57" y="719" type="line"/>
      <point x="57" y="560" type="line"/>
    </contour>
    <contour>
      <point x="181" y="730" type="line"/>
      <point x="57" y="560" type="line"/>
      <point x="409" y="0" type="line"/>
      <point x="613" y="0" type="line"/>
    </contour>
    <contour>
      <point x="854" y="575" type="line"/>
      <point x="988" y="560" type="line"/>
      <point x="988" y="719" type="line"/>
      <point x="636" y="1278" type="line"/>
      <point x="431" y="1278" type="line"/>
    </contour>
    <contour>
      <point x="864" y="730" type="line"/>
      <point x="432" y="0" type="line"/>
      <point x="636" y="0" type="line"/>
      <point x="988" y="560" type="line"/>
    </contour>
  </outline>
</glyph>
<glyph name="leftanglebracketmath" format="2">
  <advance width="646"/>
  <unicode hex="27E8"/>
  <outline>
    <contour>
      <point x="315" y="551" type="line"/>
      <point x="606" y="1343" type="line"/>
      <point x="420" y="1343" type="line"/>
      <point x="130" y="575" type="line"/>
      <point x="130" y="533" type="line"/>
      <point x="420" y="-241" type="line"/>
      <point x="606" y="-241" type="line"/>
    </contour>
  </outline>
</glyph>
<glyph name="rightanglebracketmath" format="2">
  <advance width="648"/>
  <unicode hex="27E9"/>
  <outline>
    <contour>
      <point x="333" y="551" type="line"/>
      <point x="42" y="-241" type="line"/>
      <point x="228" y="-241" type="line"/>
      <point x="518" y="533" type="line"/>
      <point x="518" y="575" type="line"/>
      <point x="228" y="1343" type="line"/>
      <point x="42" y="1343" type="line"/>
    </contour>
  </outline>
</glyph>
<glyph name="__hookabovecombsmall.case" format="2">
  <advance width="529"/>
  <anchor x="208" y="978" name="_top"/>
  <outline>
    <contour>
      <point x="187" y="1057" type="curve"/>
      <point x="168" y="1155" type="line"/>
      <point x="243" y="1172"/>
      <point x="281" y="1190"/>
      <point x="281" y="1228" type="curve" smooth="yes"/>
      <point x="281" y="1256"/>
      <point x="261" y="1270"/>
      <point x="221" y="1270" type="curve" smooth="yes"/>
      <point x="181" y="1270"/>
      <point x="148" y="1260"/>
      <point x="117" y="1249" type="curve"/>
      <point x="126" y="1348" type="line"/>
      <point x="157" y="1361"/>
      <point x="201" y="1371"/>
      <point x="253" y="1371" type="curve" smooth="yes"/>
      <point x="353" y="1371"/>
      <point x="411" y="1324"/>
      <point x="411" y="1234" type="curve" smooth="yes"/>
      <point x="411" y="1136"/>
      <point x="330" y="1082"/>
    </contour>
  </outline>
</glyph>
<glyph name="__hookabovecombsmall" format="2">
  <advance width="529"/>
  <anchor x="208" y="978" name="_top"/>
  <outline>
    <contour>
      <point x="182" y="1054" type="curve"/>
      <point x="163" y="1156" type="line"/>
      <point x="238" y="1173"/>
      <point x="277" y="1193"/>
      <point x="277" y="1235" type="curve" smooth="yes"/>
      <point x="277" y="1267"/>
      <point x="257" y="1281"/>
      <point x="214" y="1281" type="curve" smooth="yes"/>
      <point x="177" y="1281"/>
      <point x="143" y="1271"/>
      <point x="111" y="1258" type="curve"/>
      <point x="120" y="1363" type="line"/>
      <point x="151" y="1376"/>
      <point x="196" y="1387"/>
      <point x="245" y="1387" type="curve" smooth="yes"/>
      <point x="348" y="1387"/>
      <point x="407" y="1339"/>
      <point x="407" y="1244" type="curve" smooth="yes"/>
      <point x="407" y="1138"/>
      <point x="327" y="1082"/>
    </contour>
  </outline>
</glyph>
<glyph name="_acutecombsmall.case" format="2">
  <advance width="595"/>
  <anchor x="183" y="978" name="_top"/>
  <outline>
    <contour>
      <point x="262" y="1307" type="line"/>
      <point x="112" y="1082" type="line"/>
      <point x="112" y="1080" type="line"/>
      <point x="258" y="1080" type="line"/>
      <point x="442" y="1304" type="line"/>
      <point x="442" y="1307" type="line"/>
    </contour>
  </outline>
</glyph>
<glyph name="_acutecombsmall" format="2">
  <advance width="595"/>
  <anchor x="182" y="978" name="_top"/>
  <outline>
    <contour>
      <point x="265" y="1325" type="line"/>
      <point x="114" y="1086" type="line"/>
      <point x="114" y="1084" type="line"/>
      <point x="259" y="1084" type="line"/>
      <point x="444" y="1323" type="line"/>
      <point x="444" y="1325" type="line"/>
    </contour>
  </outline>
</glyph>
<glyph name="_gravecombsmall.case" format="2">
  <advance width="595"/>
  <anchor x="412" y="978" name="_top"/>
  <outline>
    <contour>
      <point x="333" y="1307" type="line"/>
      <point x="153" y="1307" type="line"/>
      <point x="153" y="1304" type="line"/>
      <point x="337" y="1080" type="line"/>
      <point x="483" y="1080" type="line"/>
      <point x="483" y="1082" type="line"/>
    </contour>
  </outline>
</glyph>
<glyph name="_gravecombsmall" format="2">
  <advance width="595"/>
  <anchor x="414" y="978" name="_top"/>
  <outline>
    <contour>
      <point x="330" y="1325" type="line"/>
      <point x="151" y="1325" type="line"/>
      <point x="151" y="1323" type="line"/>
      <point x="336" y="1084" type="line"/>
      <point x="481" y="1084" type="line"/>
      <point x="481" y="1086" type="line"/>
    </contour>
  </outline>
</glyph>
<glyph name="_tildecombsmall.case" format="2">
  <advance width="780"/>
  <anchor x="393" y="978" name="_top"/>
  <outline>
    <contour>
      <point x="523" y="1121" type="curve" smooth="yes"/>
      <point x="637" y="1121"/>
      <point x="674" y="1191"/>
      <point x="674" y="1296" type="curve" smooth="yes"/>
      <point x="674" y="1316" type="line"/>
      <point x="560" y="1316" type="line"/>
      <point x="560" y="1308" type="line" smooth="yes"/>
      <point x="560" y="1263"/>
      <point x="546" y="1238"/>
      <point x="506" y="1238" type="curve" smooth="yes"/>
      <point x="440" y="1238"/>
      <point x="360" y="1306"/>
      <point x="262" y="1306" type="curve" smooth="yes"/>
      <point x="149" y="1306"/>
      <point x="112" y="1235"/>
      <point x="112" y="1134" type="curve" smooth="yes"/>
      <point x="112" y="1111" type="line"/>
      <point x="225" y="1111" type="line"/>
      <point x="225" y="1119" type="line" smooth="yes"/>
      <point x="225" y="1162"/>
      <point x="240" y="1187"/>
      <point x="279" y="1187" type="curve" smooth="yes"/>
      <point x="345" y="1187"/>
      <point x="428" y="1121"/>
    </contour>
  </outline>
</glyph>
<glyph name="_tildecombsmall" format="2">
  <advance width="780"/>
  <anchor x="393" y="978" name="_top"/>
  <outline>
    <contour>
      <point x="521" y="1129" type="curve" smooth="yes"/>
      <point x="635" y="1129"/>
      <point x="672" y="1201"/>
      <point x="672" y="1307" type="curve" smooth="yes"/>
      <point x="672" y="1335" type="line"/>
      <point x="558" y="1335" type="line"/>
      <point x="558" y="1322" type="line" smooth="yes"/>
      <point x="558" y="1278"/>
      <point x="544" y="1254"/>
      <point x="506" y="1254" type="curve" smooth="yes"/>
      <point x="439" y="1254"/>
      <point x="360" y="1322"/>
      <point x="264" y="1322" type="curve" smooth="yes"/>
      <point x="151" y="1322"/>
      <point x="114" y="1248"/>
      <point x="114" y="1145" type="curve" smooth="yes"/>
      <point x="114" y="1116" type="line"/>
      <point x="227" y="1116" type="line"/>
      <point x="227" y="1130" type="line" smooth="yes"/>
      <point x="228" y="1172"/>
      <point x="242" y="1197"/>
      <point x="279" y="1197" type="curve" smooth="yes"/>
      <point x="346" y="1197"/>
      <point x="427" y="1129"/>
    </contour>
  </outline>
</glyph>
<glyph name="brevecomb.case" format="2">
  <anchor x="378" y="1278" name="_top"/>
  <anchor x="378" y="1610" name="top"/>
  <outline>
    <contour>
      <point x="378" y="1391" type="curve" smooth="yes"/>
      <point x="568" y="1391"/>
      <point x="649" y="1485"/>
      <point x="652" y="1651" type="curve"/>
      <point x="519" y="1651" type="line"/>
      <point x="514" y="1565"/>
      <point x="469" y="1518"/>
      <point x="378" y="1518" type="curve" smooth="yes"/>
      <point x="286" y="1518"/>
      <point x="242" y="1566"/>
      <point x="237" y="1651" type="curve"/>
      <point x="104" y="1651" type="line"/>
      <point x="107" y="1485"/>
      <point x="189" y="1391"/>
    </contour>
  </outline>
</glyph>
<glyph name="brevecomb.narrow" format="2">
  <anchor x="375" y="978" name="_top"/>
  <anchor x="376" y="1332" name="top"/>
  <outline>
    <contour>
      <point x="376" y="1085" type="curve" smooth="yes"/>
      <point x="545" y="1085"/>
      <point x="610" y="1182"/>
      <point x="613" y="1368" type="curve"/>
      <point x="485" y="1368" type="line"/>
      <point x="484" y="1260"/>
      <point x="451" y="1210"/>
      <point x="376" y="1210" type="curve" smooth="yes"/>
      <point x="300" y="1210"/>
      <point x="268" y="1260"/>
      <point x="267" y="1368" type="curve"/>
      <point x="139" y="1368" type="line"/>
      <point x="141" y="1182"/>
      <point x="207" y="1085"/>
    </contour>
  </outline>
</glyph>
<glyph name="brevecomb_tildecomb.case" format="2">
  <anchor x="378" y="1278" name="_top"/>
  <anchor x="377" y="1610" name="top"/>
  <outline>
    <contour>
      <point x="506" y="1751" type="curve" smooth="yes"/>
      <point x="617" y="1751"/>
      <point x="654" y="1819"/>
      <point x="654" y="1922" type="curve" smooth="yes"/>
      <point x="654" y="1942" type="line"/>
      <point x="542" y="1942" type="line"/>
      <point x="542" y="1934" type="line" smooth="yes"/>
      <point x="542" y="1890"/>
      <point x="528" y="1865"/>
      <point x="489" y="1865" type="curve" smooth="yes"/>
      <point x="424" y="1865"/>
      <point x="346" y="1932"/>
      <point x="250" y="1932" type="curve" smooth="yes"/>
      <point x="139" y="1932"/>
      <point x="103" y="1862"/>
      <point x="103" y="1763" type="curve" smooth="yes"/>
      <point x="103" y="1741" type="line"/>
      <point x="214" y="1741" type="line"/>
      <point x="214" y="1749" type="line" smooth="yes"/>
      <point x="214" y="1791"/>
      <point x="228" y="1815"/>
      <point x="266" y="1815" type="curve" smooth="yes"/>
      <point x="331" y="1815"/>
      <point x="412" y="1751"/>
    </contour>
    <component base="brevecomb.case" xOffset="-1"/>
  </outline>
</glyph>
<glyph name="brevecomb_tildecomb" format="2">
  <anchor x="375" y="978" name="_top"/>
  <anchor x="375" y="1333" name="top"/>
  <outline>
    <contour>
      <point x="501" y="1481" type="curve" smooth="yes"/>
      <point x="612" y="1481"/>
      <point x="649" y="1552"/>
      <point x="649" y="1656" type="curve" smooth="yes"/>
      <point x="649" y="1683" type="line"/>
      <point x="537" y="1683" type="line"/>
      <point x="537" y="1671" type="line" smooth="yes"/>
      <point x="537" y="1627"/>
      <point x="523" y="1604"/>
      <point x="486" y="1604" type="curve" smooth="yes"/>
      <point x="420" y="1604"/>
      <point x="343" y="1671"/>
      <point x="249" y="1671" type="curve" smooth="yes"/>
      <point x="138" y="1671"/>
      <point x="102" y="1598"/>
      <point x="102" y="1497" type="curve" smooth="yes"/>
      <point x="102" y="1469" type="line"/>
      <point x="212" y="1469" type="line"/>
      <point x="212" y="1482" type="line" smooth="yes"/>
      <point x="213" y="1524"/>
      <point x="227" y="1548"/>
      <point x="263" y="1548" type="curve" smooth="yes"/>
      <point x="329" y="1548"/>
      <point x="408" y="1481"/>
    </contour>
    <component base="brevecomb" xOffset="-1"/>
  </outline>
</glyph>
<glyph name="breveinvertedcomb.case" format="2">
  <anchor x="378" y="1278" name="_top"/>
  <anchor x="378" y="1615" name="top"/>
  <outline>
    <contour>
      <point x="378" y="1656" type="curve" smooth="yes"/>
      <point x="189" y="1656"/>
      <point x="107" y="1562"/>
      <point x="104" y="1396" type="curve"/>
      <point x="237" y="1396" type="line"/>
      <point x="242" y="1481"/>
      <point x="286" y="1529"/>
      <point x="378" y="1529" type="curve" smooth="yes"/>
      <point x="469" y="1529"/>
      <point x="514" y="1482"/>
      <point x="519" y="1396" type="curve"/>
      <point x="652" y="1396" type="line"/>
      <point x="649" y="1562"/>
      <point x="568" y="1656"/>
    </contour>
  </outline>
</glyph>
<glyph name="breveinvertedcomb.narrow" format="2">
  <anchor x="375" y="978" name="_top"/>
  <anchor x="376" y="1335" name="top"/>
  <outline>
    <contour>
      <point x="376" y="1376" type="curve" smooth="yes"/>
      <point x="207" y="1376"/>
      <point x="141" y="1279"/>
      <point x="139" y="1093" type="curve"/>
      <point x="267" y="1093" type="line"/>
      <point x="268" y="1201"/>
      <point x="300" y="1251"/>
      <point x="376" y="1251" type="curve" smooth="yes"/>
      <point x="451" y="1251"/>
      <point x="484" y="1201"/>
      <point x="485" y="1093" type="curve"/>
      <point x="613" y="1093" type="line"/>
      <point x="610" y="1279"/>
      <point x="545" y="1376"/>
    </contour>
  </outline>
</glyph>
<glyph name="caroncomb.alt" format="2">
  <anchor x="109" y="1278" name="_topright"/>
  <outline>
    <contour>
      <point x="275" y="1278" type="curve"/>
      <point x="108" y="1278" type="line"/>
      <point x="113" y="1241"/>
      <point x="115" y="1210"/>
      <point x="115" y="1174" type="curve" smooth="yes"/>
      <point x="115" y="1054"/>
      <point x="94" y="957"/>
      <point x="49" y="868" type="curve"/>
      <point x="172" y="834" type="line"/>
      <point x="251" y="936"/>
      <point x="283" y="1048"/>
      <point x="283" y="1183" type="curve" smooth="yes"/>
      <point x="283" y="1222"/>
      <point x="278" y="1256"/>
    </contour>
  </outline>
</glyph>
<glyph name="caroncomb.case" format="2">
  <anchor x="420" y="1278" name="_top"/>
  <anchor x="420" y="1610" name="top"/>
  <outline>
    <contour>
      <point x="316" y="1396" type="line"/>
      <point x="522" y="1396" type="line"/>
      <point x="739" y="1648" type="line"/>
      <point x="739" y="1651" type="line"/>
      <point x="574" y="1651" type="line"/>
      <point x="423" y="1503" type="line"/>
      <point x="415" y="1503" type="line"/>
      <point x="264" y="1651" type="line"/>
      <point x="99" y="1651" type="line"/>
      <point x="99" y="1648" type="line"/>
    </contour>
  </outline>
</glyph>
<glyph name="circumflexcomb_tildecomb.case" format="2">
  <anchor x="421" y="1278" name="_top"/>
  <anchor x="422" y="1610" name="top"/>
  <outline>
    <contour>
      <point x="550" y="1751" type="curve" smooth="yes"/>
      <point x="661" y="1751"/>
      <point x="698" y="1819"/>
      <point x="698" y="1922" type="curve" smooth="yes"/>
      <point x="698" y="1942" type="line"/>
      <point x="586" y="1942" type="line"/>
      <point x="586" y="1934" type="line" smooth="yes"/>
      <point x="586" y="1890"/>
      <point x="572" y="1865"/>
      <point x="533" y="1865" type="curve" smooth="yes"/>
      <point x="468" y="1865"/>
      <point x="390" y="1932"/>
      <point x="294" y="1932" type="curve" smooth="yes"/>
      <point x="183" y="1932"/>
      <point x="147" y="1862"/>
      <point x="147" y="1763" type="curve" smooth="yes"/>
      <point x="147" y="1741" type="line"/>
      <point x="258" y="1741" type="line"/>
      <point x="258" y="1749" type="line" smooth="yes"/>
      <point x="258" y="1791"/>
      <point x="272" y="1815"/>
      <point x="310" y="1815" type="curve" smooth="yes"/>
      <point x="375" y="1815"/>
      <point x="456" y="1751"/>
    </contour>
    <component base="circumflexcomb.case"/>
  </outline>
</glyph>
<glyph name="circumflexcomb_tildecomb" format="2">
  <anchor x="392" y="978" name="_top"/>
  <anchor x="392" y="1327" name="top"/>
  <outline>
    <contour>
      <point x="519" y="1474" type="curve" smooth="yes"/>
      <point x="630" y="1474"/>
      <point x="667" y="1545"/>
      <point x="667" y="1649" type="curve" smooth="yes"/>
      <point x="667" y="1676" type="line"/>
      <point x="555" y="1676" type="line"/>
      <point x="555" y="1664" type="line" smooth="yes"/>
      <point x="555" y="1620"/>
      <point x="541" y="1597"/>
      <point x="504" y="1597" type="curve" smooth="yes"/>
      <point x="438" y="1597"/>
      <point x="361" y="1664"/>
      <point x="267" y="1664" type="curve" smooth="yes"/>
      <point x="156" y="1664"/>
      <point x="120" y="1591"/>
      <point x="120" y="1490" type="curve" smooth="yes"/>
      <point x="120" y="1462" type="line"/>
      <point x="230" y="1462" type="line"/>
      <point x="230" y="1475" type="line" smooth="yes"/>
      <point x="231" y="1517"/>
      <point x="245" y="1541"/>
      <point x="281" y="1541" type="curve" smooth="yes"/>
      <point x="347" y="1541"/>
      <point x="426" y="1474"/>
    </contour>
    <component base="circumflexcomb"/>
  </outline>
</glyph>
<glyph name="commaturnedabovecomb.case" format="2">
  <anchor x="202" y="1278" name="_top"/>
  <anchor x="215" y="1691" name="top"/>
  <outline>
    <contour>
      <point x="124" y="1397" type="curve"/>
      <point x="291" y="1397" type="line"/>
      <point x="289" y="1422"/>
      <point x="287" y="1446"/>
      <point x="287" y="1472" type="curve" smooth="yes"/>
      <point x="287" y="1569"/>
      <point x="308" y="1645"/>
      <point x="350" y="1717" type="curve"/>
      <point x="223" y="1754" type="line"/>
      <point x="147" y="1668"/>
      <point x="119" y="1580"/>
      <point x="119" y="1470" type="curve" smooth="yes"/>
      <point x="119" y="1442"/>
      <point x="122" y="1416"/>
    </contour>
  </outline>
</glyph>
<glyph name="dblgravecomb.case" format="2">
  <anchor x="520" y="1278" name="_top"/>
  <anchor x="376" y="1615" name="top"/>
  <outline>
    <contour>
      <point x="291" y="1651" type="line"/>
      <point x="106" y="1651" type="line"/>
      <point x="106" y="1648" type="line"/>
      <point x="299" y="1396" type="line"/>
      <point x="448" y="1396" type="line"/>
      <point x="448" y="1399" type="line"/>
    </contour>
    <contour>
      <point x="583" y="1651" type="line"/>
      <point x="399" y="1651" type="line"/>
      <point x="399" y="1647" type="line"/>
      <point x="593" y="1396" type="line"/>
      <point x="742" y="1396" type="line"/>
      <point x="742" y="1399" type="line"/>
    </contour>
  </outline>
</glyph>
<glyph name="dblgravecomb.narrow" format="2">
  <anchor x="501" y="978" name="_top"/>
  <anchor x="382" y="1336" name="top"/>
  <outline>
    <contour>
      <point x="337" y="1368" type="line"/>
      <point x="172" y="1368" type="line"/>
      <point x="172" y="1366" type="line"/>
      <point x="310" y="1093" type="line"/>
      <point x="443" y="1093" type="line"/>
      <point x="443" y="1094" type="line"/>
    </contour>
    <contour>
      <point x="603" y="1368" type="line"/>
      <point x="438" y="1368" type="line"/>
      <point x="438" y="1363" type="line"/>
      <point x="559" y="1093" type="line"/>
      <point x="693" y="1093" type="line"/>
      <point x="693" y="1094" type="line"/>
    </contour>
  </outline>
</glyph>
<glyph name="dotaccentcomb.case" format="2">
  <anchor x="210" y="1278" name="_top"/>
  <anchor x="209" y="1615" name="top"/>
  <outline>
    <contour>
      <point x="209" y="1419" type="curve" smooth="yes"/>
      <point x="280" y="1419"/>
      <point x="315" y="1457"/>
      <point x="315" y="1523" type="curve" smooth="yes"/>
      <point x="315" y="1528" type="line" smooth="yes"/>
      <point x="315" y="1592"/>
      <point x="280" y="1631"/>
      <point x="209" y="1631" type="curve" smooth="yes"/>
      <point x="139" y="1631"/>
      <point x="104" y="1592"/>
      <point x="104" y="1528" type="curve" smooth="yes"/>
      <point x="104" y="1523" type="line" smooth="yes"/>
      <point x="104" y="1457"/>
      <point x="139" y="1419"/>
    </contour>
  </outline>
</glyph>
<glyph name="dotbelowcomb.case" format="2">
  <anchor x="210" y="0" name="_bottom"/>
  <anchor x="210" y="-372" name="bottom"/>
  <outline>
    <contour>
      <point x="209" y="-353" type="curve" smooth="yes"/>
      <point x="280" y="-353"/>
      <point x="315" y="-315"/>
      <point x="315" y="-249" type="curve" smooth="yes"/>
      <point x="315" y="-244" type="line" smooth="yes"/>
      <point x="315" y="-180"/>
      <point x="280" y="-141"/>
      <point x="209" y="-141" type="curve" smooth="yes"/>
      <point x="139" y="-141"/>
      <point x="104" y="-180"/>
      <point x="104" y="-244" type="curve" smooth="yes"/>
      <point x="104" y="-249" type="line" smooth="yes"/>
      <point x="104" y="-315"/>
      <point x="139" y="-353"/>
    </contour>
  </outline>
</glyph>
<glyph name="horncomb.case" format="2">
  <anchor x="338" y="1278" name="_topright"/>
  <anchor x="425" y="1515" name="topright"/>
  <outline>
    <contour>
      <point x="151" y="1187" type="line"/>
      <point x="330" y="1215"/>
      <point x="410" y="1285"/>
      <point x="410" y="1409" type="curve" smooth="yes"/>
      <point x="410" y="1448"/>
      <point x="402" y="1482"/>
      <point x="391" y="1512" type="curve"/>
      <point x="216" y="1512" type="line"/>
      <point x="226" y="1483"/>
      <point x="233" y="1451"/>
      <point x="233" y="1418" type="curve" smooth="yes"/>
      <point x="233" y="1338"/>
      <point x="190" y="1294"/>
      <point x="98" y="1266" type="curve"/>
    </contour>
  </outline>
</glyph>
<glyph name="horncomb.case_O" format="2">
  <anchor x="192" y="1278" name="_topright"/>
  <anchor x="327" y="1514" name="topright"/>
  <outline>
    <contour>
      <point x="39" y="1160" type="line"/>
      <point x="231" y="1195"/>
      <point x="312" y="1276"/>
      <point x="312" y="1410" type="curve" smooth="yes"/>
      <point x="312" y="1449"/>
      <point x="304" y="1483"/>
      <point x="293" y="1512" type="curve"/>
      <point x="117" y="1512" type="line"/>
      <point x="127" y="1484"/>
      <point x="135" y="1451"/>
      <point x="135" y="1418" type="curve" smooth="yes"/>
      <point x="135" y="1333"/>
      <point x="83" y="1283"/>
      <point x="-23" y="1253" type="curve"/>
    </contour>
  </outline>
</glyph>
<glyph name="horncomb_o" format="2">
  <anchor x="304" y="978" name="_topright"/>
  <anchor x="418" y="1215" name="topright"/>
  <outline>
    <contour>
      <point x="142" y="880" type="line"/>
      <point x="324" y="909"/>
      <point x="401" y="991"/>
      <point x="401" y="1114" type="curve" smooth="yes"/>
      <point x="401" y="1155"/>
      <point x="393" y="1189"/>
      <point x="382" y="1219" type="curve"/>
      <point x="208" y="1219" type="line"/>
      <point x="217" y="1190"/>
      <point x="225" y="1157"/>
      <point x="225" y="1123" type="curve" smooth="yes"/>
      <point x="225" y="1043"/>
      <point x="176" y="990"/>
      <point x="77" y="968" type="curve"/>
    </contour>
  </outline>
</glyph>
<glyph name="hungarumlautcomb.case" format="2">
  <anchor x="323" y="1278" name="_top"/>
  <anchor x="470" y="1615" name="top"/>
  <outline>
    <contour>
      <point x="551" y="1651" type="line"/>
      <point x="394" y="1399" type="line"/>
      <point x="394" y="1396" type="line"/>
      <point x="543" y="1396" type="line"/>
      <point x="736" y="1648" type="line"/>
      <point x="736" y="1651" type="line"/>
    </contour>
    <contour>
      <point x="259" y="1651" type="line"/>
      <point x="100" y="1399" type="line"/>
      <point x="100" y="1396" type="line"/>
      <point x="249" y="1396" type="line"/>
      <point x="443" y="1647" type="line"/>
      <point x="443" y="1651" type="line"/>
    </contour>
  </outline>
</glyph>
<glyph name="hungarumlautcomb.narrow" format="2">
  <anchor x="323" y="978" name="_top"/>
  <anchor x="437" y="1336" name="top"/>
  <outline>
    <contour>
      <point x="486" y="1368" type="line"/>
      <point x="380" y="1094" type="line"/>
      <point x="380" y="1093" type="line"/>
      <point x="513" y="1093" type="line"/>
      <point x="651" y="1366" type="line"/>
      <point x="651" y="1368" type="line"/>
    </contour>
    <contour>
      <point x="220" y="1368" type="line"/>
      <point x="130" y="1094" type="line"/>
      <point x="130" y="1093" type="line"/>
      <point x="264" y="1093" type="line"/>
      <point x="385" y="1363" type="line"/>
      <point x="385" y="1368" type="line"/>
    </contour>
  </outline>
</glyph>
<glyph name="ogonekcomb.case" format="2">
  <anchor x="451" y="0" name="_ogonek"/>
  <outline>
    <contour>
      <point x="317" y="-363" type="curve" smooth="yes"/>
      <point x="364" y="-363"/>
      <point x="410" y="-355"/>
      <point x="444" y="-341" type="curve"/>
      <point x="463" y="-207" type="line"/>
      <point x="431" y="-218"/>
      <point x="400" y="-224"/>
      <point x="367" y="-224" type="curve" smooth="yes"/>
      <point x="305" y="-224"/>
      <point x="268" y="-199"/>
      <point x="268" y="-146" type="curve" smooth="yes"/>
      <point x="268" y="-145" type="line" smooth="yes"/>
      <point x="268" y="-83"/>
      <point x="319" y="-42"/>
      <point x="410" y="0" type="curve"/>
      <point x="405" y="4" type="line"/>
      <point x="283" y="8" type="line"/>
      <point x="283" y="-5" type="line"/>
      <point x="177" y="-46"/>
      <point x="121" y="-106"/>
      <point x="121" y="-203" type="curve" smooth="yes"/>
      <point x="121" y="-205" type="line" smooth="yes"/>
      <point x="121" y="-310"/>
      <point x="197" y="-363"/>
    </contour>
  </outline>
</glyph>
<glyph name="periodcentered.loclCAT.case" format="2">
  <outline>
    <contour>
      <point x="-251" y="608" type="curve" smooth="yes"/>
      <point x="-181" y="608"/>
      <point x="-148" y="647"/>
      <point x="-148" y="715" type="curve" smooth="yes"/>
      <point x="-148" y="723" type="line" smooth="yes"/>
      <point x="-148" y="789"/>
      <point x="-181" y="829"/>
      <point x="-251" y="829" type="curve" smooth="yes"/>
      <point x="-319" y="829"/>
      <point x="-353" y="789"/>
      <point x="-353" y="723" type="curve" smooth="yes"/>
      <point x="-353" y="715" type="line" smooth="yes"/>
      <point x="-353" y="647"/>
      <point x="-319" y="608"/>
    </contour>
  </outline>
</glyph>
<glyph name="periodcentered.loclCAT" format="2">
  <advance width="123"/>
  <outline>
    <contour>
      <point x="61" y="594" type="curve" smooth="yes"/>
      <point x="129" y="594"/>
      <point x="162" y="633"/>
      <point x="162" y="701" type="curve" smooth="yes"/>
      <point x="162" y="709" type="line" smooth="yes"/>
      <point x="162" y="775"/>
      <point x="129" y="815"/>
      <point x="61" y="815" type="curve" smooth="yes"/>
      <point x="-6" y="815"/>
      <point x="-39" y="775"/>
      <point x="-39" y="709" type="curve" smooth="yes"/>
      <point x="-39" y="701" type="line" smooth="yes"/>
      <point x="-39" y="633"/>
      <point x="-6" y="594"/>
    </contour>
  </outline>
</glyph>
